<?xml version='1.0' encoding='utf-8'?>
<svg xmlns="http://www.w3.org/2000/svg" version="1.1" id="Layer_1" x="0px" y="0px" viewBox="0 0 2618 1583.779" enable-background="new 0 0 2618 1583.779"> <g> <path fill="none" stroke="#A3B7DF" stroke-width="4.8187" stroke-linecap="round" stroke-linejoin="round" d="M1003.591,97.764 c0,0,14.77,7.418,14.289,8.25c-0.112,0.194-34.413-7.189-34.413-7.189c-1.134,1.964,41.664,23.088,41.245,23.813 c-1.517,2.627-48.022-19.885-49.982-16.491c-0.737,1.277,53.065,30.637,53.065,30.637c-2.292,3.969-67.041-24.798-67.756-23.559 c-2.094,3.627,73.337,42.341,73.337,42.341l-72.015-33.855c-0.328,0.569,72.121,39.497,71.193,41.103 c-1.902,3.294-79.628-29.456-80.629-27.722c0,0,87.488,45.168,85.174,49.175c-2.276,3.942-83.697-32.789-84.697-31.058 c-6.687,11.583,246.656,135.382,243.614,140.651L947.354,166.243c-0.404,0.699,228.094,111.241,219.239,126.578 c-9.21,15.952-226-116.578-226-116.578s216.347,110.879,210.272,121.401c-6.917,11.981-208.405-121.104-211.77-115.275 c-2.948,5.107,201.132,104.505,196.101,113.219c-3.981,6.895-185.157-100.998-190.908-91.037 c-3.82,6.616,182.799,90.194,176.155,101.703c-3.676,6.367-166.352-77.536-166.352-77.536 c-2.15,3.723,121.392,61.239,117.562,67.874c0,0-94.124-46.072-96.857-41.338c-0.08,0.139,24.658,12.846,24.056,13.889"/> <path fill="none" stroke="#E51F5D" stroke-width="4.8187" stroke-linecap="round" stroke-linejoin="round" d="M1116.883,349.329 c-0.134,0.231,25.646,14.807,25.646,14.807c-0.987,1.71-45.375-16.538-45.453-16.402c0,0,91.966,45.693,88.76,51.246"/> <path fill="none" stroke="#AB6F5F" stroke-width="4.8187" stroke-linecap="round" stroke-linejoin="round" d="M1051.489,324.035 c-0.255,0.441,20.259,11.696,20.259,11.696s-68.071-33.743-68.697-32.66c-1.082,1.874,259.052,147.742,258.263,149.108"/> <path fill="none" stroke="#492D23" stroke-width="4.8187" stroke-linecap="round" stroke-linejoin="round" d="M882.388,118.262 c-0.433,0.75,21.887,12.39,21.78,12.575c-0.221,0.383-43.534-9.154-44.199-8.001c-1.365,2.364,70.605,36.527,68.77,39.704 c-1.118,1.936-75.697-38.189-77.445-35.162c-3.128,5.417,80.336,46.239,80.274,46.346c0,0-85.906-46.517-87.884-43.091 c-2.245,3.888,88.411,50.155,88.026,50.822c-3.292,5.702-86.313-45.238-87.214-43.675l86.84,50.137 c-1.243,2.153-102.763-52.5-104.847-48.89l102.501,59.179c-2.502,4.333-111.24-52.735-111.24-52.735 c-5.009,8.676,122.043,64.301,119.376,68.922c-3.517,6.091-131.902-69.461-131.902-69.461 c-4.361,7.554,135.08,73.119,132.971,76.771c-0.37,0.642-153.813-70.142-153.813-70.142 c-0.646,1.119,169.936,84.691,164.125,94.757c-0.445,0.771-174.743-90.56-176.423-87.65 c-2.523,4.369,180.173,104.023,180.173,104.023c-2.521,4.366-181.195-96.888-181.195-96.888 c-0.845,1.463,183.693,106.055,183.693,106.055c-2.383,4.127-187.898-104.331-189.078-102.287 c-0.463,0.802,211.552,120.279,210.746,121.674c0,0-224.311-115.279-224.489-114.971c0,0,546.731,275.398,529.299,305.591 L738.123,181.52c0,0,117.623,61.746,114.954,66.369c0,0-127.394-61.254-130.131-56.515l112.539,64.975 c-2.195,3.801-116.854-64.723-119.068-60.888c-4.074,7.057,113.005,58.422,110.051,63.538c0,0-109.681-61.69-112.614-56.609 c-1.325,2.295,107.789,55.892,105.043,60.647c-4.698,8.138-112.937-58.937-114.082-56.954 c-1.712,2.966,102.977,59.282,102.903,59.411c-3.754,6.502-108.147-55.775-109.841-52.841c0,0,104.436,57.824,103.365,59.678 c-1.554,2.691-110.492-57.637-113.146-53.038c-0.758,1.313,100.945,54.159,99.16,57.25l-107.327-51.605 c-4.004,6.935,100.125,57.807,100.125,57.807c-0.357,0.618-115.439-48.672-115.916-47.845c0,0,98.287,56.312,98.099,56.638 c0,0-102.38-46.16-104.367-42.718c-0.854,1.479,102.697,54.77,100.739,58.161c0,0-106.678-58.08-110.274-51.853 c-0.787,1.364,99.618,50.829,96.723,55.843c0,0-103.892-50.336-106.375-46.035c-1.829,3.167,104.924,51.144,100.839,58.219 c-2.396,4.15-108.931-58.448-113.472-50.584c-0.436,0.755,110.809,63.258,110.499,63.796c-4.6,7.967-122.865-57.778-123.685-56.359 c-3.577,6.195,110.37,63.722,110.37,63.722s-113.326-58.267-115.169-55.075c-2.353,4.076,115.001,59.158,111.867,64.586 c-0.623,1.08-126.219-63.117-128.785-58.673c-3.711,6.427,123.872,66.418,121.664,70.243 c-4.322,7.485-127.237-66.098-130.476-60.488c-3.855,6.677,128.309,68.323,125.817,72.64c-4.48,7.76-138.102-75.401-143.345-66.32 c0,0,138.776,68.68,133.822,77.262c-0.919,1.591-132.162-77.461-136.598-69.778c-2.587,4.481,130.937,66.813,127.134,73.401 c0,0-125.7-72.432-130.22-64.603c-3.466,6.003,122.984,69.336,122.261,70.587c-3.815,6.608-135.821-71.313-136.779-69.655 c0,0,130.659,70.19,128.388,74.125c0,0-130.276-71.206-133.985-64.783c-0.127,0.219,128.76,71.602,127.574,73.655 c-3.829,6.632-144.309-68.632-144.309-68.632s138.435,72.917,135.4,78.173c-0.702,1.215-153.513-80.341-157.998-72.574 c-3.352,5.807,134.331,77.556,134.331,77.556c-1.405,2.434-149.926-76.379-150.395-75.566 c-0.395,0.684,136.734,70.274,132.98,76.776c-4.154,7.195-136.794-80.579-142.257-71.115 c-3.142,5.442,136.252,75.247,134.772,77.81c-1.901,3.293-133.936-65.696-133.936-65.696s113.879,60.098,111.432,64.336 L471.61,376.488c-2.337,4.049,108.55,53.493,104.575,60.377c0,0-106.869-53.945-108.624-50.906 c-0.383,0.664,94.318,54.455,94.318,54.455l-102.324-49.326c-0.409,0.708,94.828,54.749,94.828,54.749 c-1.136,1.968-100.255-53.19-103.43-47.691c-2.998,5.193,83.699,45.47,82.463,47.61c-2.425,4.201-90.568-41.785-90.568-41.785 c-0.871,1.508,78.895,45.55,78.895,45.55c-0.108,0.187-89.388-37.547-90.005-36.477c-1.221,2.116,77.249,44.6,77.249,44.6 c-2.193,3.798-96.294-44.612-97.76-42.074c-1.777,3.078,86.646,44.414,84.216,48.622c-1.643,2.846-87.258-39.153-89.04-36.068 c0,0,74.44,41.216,73.677,42.538c-1.238,2.144-79.382-35.46-79.888-34.584c-1.591,2.756,70.262,34.126,67.473,38.956 c-1.939,3.359-69.386-24.871-69.386-24.871c-1.499,2.596,51.584,27.662,50.666,29.252c-1.142,1.977-55.086-18.754-55.51-18.019 c-1.381,2.392,52.37,28.208,51.492,29.729c-0.818,1.417-43.21-20.995-44.964-17.957c-0.557,0.964,38.979,19.267,37.577,21.695 c-0.779,1.349-30.517-5.811-30.971-5.023c-0.463,0.802,14.899,8.602,14.899,8.602"/> <path fill="none" stroke="#E5D1E5" stroke-width="4.8187" stroke-linecap="round" stroke-linejoin="round" d="M872.895,247.521 c-12.242,21.204,409.382,222.555,403.405,232.906c-10.253,17.759-397.028-237.43-406.938-220.267 c-15.831,27.421,410.053,236.744,410.053,236.744c-3.826,6.628-407.027-261.723-422.329-235.219 c0,0,445.606,217.108,428.215,247.23c-16.574,28.708-433.695-232.027-433.695-232.027 c-2.324,4.026,447.213,229.853,434.939,251.112c-15.113,26.177-433.544-255.161-440.314-243.435 c-18.428,31.918,436.378,251.943,436.378,251.943c-3.364,5.826-417.92-252.334-427.736-235.332c0,0,22.365,11.364,21.694,12.525"/> <path fill="none" stroke="#63379F" stroke-width="4.8187" stroke-linecap="round" stroke-linejoin="round" d="M678.328,1292.004 c-3.468,6.006,96.211,50.532,94.039,54.294c0,0-88.84-45.949-91.653-41.076c0,0,77.639,41.102,76.027,43.894 c-0.221,0.383-74.327-35.238-74.327-35.238c-0.07,0.121,68.416,35.623,66.738,38.531c-2.527,4.377-106.069-48.307-107.28-46.209 c-4.012,6.949,95.798,55.309,95.798,55.309c-3.29,5.698-111.898-54.819-114.106-50.995c-3.66,6.339,103.853,58.622,103.274,59.625 c-0.397,0.687-114.892-61.731-117.794-56.705c0,0,109.475,55.574,106.17,61.298c-0.056,0.098-129.06-69.101-129.858-67.72 c-1.433,2.482,115.834,64.367,114.747,66.249c0,0-146.355-83.479-151.923-73.836c-4.54,7.864,134.382,77.585,134.382,77.585 c-5.228,9.056-158.473-79.175-158.738-78.716c-1.896,3.283,139.327,74.63,136.811,78.988 c-3.273,5.668-163.598-79.886-163.598-79.886c-1.685,2.918,130.809,73.003,129.718,74.893 c-3.956,6.853-140.266-78.802-143.214-73.696c-1.089,1.886,90.604,47.168,88.377,51.024c0,0-100.582-58.487-104.238-52.155 c-1.033,1.789,93.483,53.033,93.076,53.738c-4.267,7.39-120.49-57.525-122.795-53.532c0,0,116.395,62.425,114.327,66.007 c-2.621,4.54-128.368-65.748-128.368-65.748c-3.665,6.349,120.807,69.748,120.807,69.748 c-1.817,3.148-134.052-65.41-137.009-60.289c0,0,119.835,60.505,116.076,67.017c-1.41,2.442-125.571-74.319-130.259-66.201 c-3.604,6.242,123.246,63.019,119.723,69.122c-0.684,1.184-122.793-63.357-123.936-61.378 c-0.747,1.293,112.778,59.534,110.362,63.718c-2.013,3.487-128.458-62.076-128.969-61.191 c-0.983,1.702,118.964,57.991,114.334,66.011c-5.827,10.092-172.106-95.085-177.564-85.631 c-3.925,6.799,159.679,83.344,155.848,89.979c-3.563,6.171-180.07-92.431-180.403-91.856 c-6.738,11.67,169.209,94.635,167.884,96.928c-6.575,11.388-181.825-91.136-183.211-88.736c0,0,158.135,79.8,153.156,88.424 c-4.094,7.09-161.76-84.936-161.76-84.936l152.308,87.935c-5.753,9.964-154.438-91.078-158.158-84.634 c-1.461,2.53,146,84.032,145.887,84.228c-5.62,9.734-154.048-89.552-159.873-79.463c-4.414,7.645,138.088,79.725,138.088,79.725"/> <path fill="none" stroke="#036B41" stroke-width="4.8187" stroke-linecap="round" stroke-linejoin="round" d="M503.475,1254.539 c0,0,39.459,19.35,37.973,21.924"/> <path fill="none" stroke="#FD3D97" stroke-width="4.8187" stroke-linecap="round" stroke-linejoin="round" d="M1102.117,1268.426 c0,0,98.203,47.833,94.365,54.481c-3.174,5.497-122.594-51.262-122.594-51.262c-2.73,4.729,95.035,52.063,93.821,54.167 c0,0-121.359-55.545-123.364-52.073c-1.685,2.918,97.011,56.009,97.011,56.009s-107.783-51.919-107.846-51.809 c0,0,96.703,46.517,92.67,53.503c-2.32,4.018-107.102-59.496-110.305-53.949c-2.854,4.943,112.49,58.611,109.747,63.362 c0,0-125.949-70.565-129.765-63.956c-4.93,8.539,118.967,65.562,117.615,67.905c-4.597,7.962-133.755-68.937-137.256-62.872 c-4.946,8.567,122.305,70.613,122.305,70.613c-2.1,3.638-136.538-78.343-139.664-72.929 c-4.401,7.622,132.125,64.561,127.049,73.352c-1.023,1.771-131.807-71.183-132.797-69.469 c-2.967,5.138,121.24,69.147,120.872,69.786c-5.071,8.782-133.618-68.457-136.32-63.777 c-1.476,2.557,115.931,60.172,113.004,65.243c-5.092,8.82-123.829-61.24-123.829-61.24c-2.296,3.976,118.4,68.358,118.4,68.358 c-2.158,3.737-120.861-62.882-121.849-61.172c-2.421,4.193,118.583,67.112,117.998,68.126 c-2.755,4.771-119.896-73.437-124.638-65.224c-5.304,9.187,115.332,65.104,114.69,66.216l-140.198-64.079 c-1.058,1.832,126.794,70.169,125.479,72.445c-3.892,6.742-138.177-67.983-141.302-62.572c0,0,130.165,70.747,128.258,74.05 c-0.45,0.779-138.861-70.019-138.861-70.019c-2.771,4.8,123.276,62.337,119.45,68.965c-2.742,4.75-123.409-59.304-123.409-59.304 c-0.056,0.097,115.453,62.473,113.642,65.611l-133.531-59.467c-0.053,0.092,107.084,57.007,104.998,60.621 c-3.697,6.403-117.088-57.759-117.088-57.759c-0.659,1.141,114.922,56.395,110.611,63.861 c-3.215,5.568-122.76-69.012-127.284-61.176c-1.845,3.196,120.426,69.528,120.426,69.528 c-2.924,5.065-128.936-72.974-132.79-66.299c-1.392,2.411,117.054,64.595,115.761,66.834l-126.546-61.874 c-0.642,1.112,121.823,59.064,116.943,67.517c-2.66,4.608-118.164-66.533-121.405-60.92c-1.286,2.227,115.75,56.581,111.313,64.266 c-3.09,5.353-119.791-66.925-124.715-58.396c0,0,112.554,61.38,110.994,64.082c-4.025,6.971-114.791-52.786-115.099-52.253 c-3.991,6.913,113.175,55.435,108.885,62.865c-4.689,8.122-116.261-53.564-118.027-50.505c-0.33,0.572,97.743,51.423,95.574,55.18 c-3.98,6.894-99.915-49.84-103.073-44.371c-2.887,5,88.565,46.805,86.691,50.051c-1.91,3.308-62.126-24.431-63.495-22.06 l23.178,13.382"/> <path fill="none" stroke="#EDC129" stroke-width="4.8187" stroke-linecap="round" stroke-linejoin="round" d="M1227.236,1430.575 c-0.473,0.82,99.648,57.532,99.648,57.532l-124.251-55.058c0,0,113.485,55.881,109.311,63.111 c-5.411,9.372-129.929-65.605-133.742-59.002c-3.19,5.526,116.731,59.713,113.405,65.474 c-5.015,8.686-122.842-69.838-125.758-64.788c-4.333,7.505,116.066,64.795,115.107,66.457 c-2.37,4.104-135.961-75.885-140.69-67.693c-2.847,4.932,132.976,66.002,128.312,74.081"/> <path fill="none" stroke="#09BF29" stroke-width="4.8187" stroke-linecap="round" stroke-linejoin="round" d="M1366.605,1475.944 c-1.878,3.253,153.714,87.802,153.305,88.511c-1.446,2.505-154.573-77.16-155.334-75.843 c-0.816,1.413,132.501,74.625,131.689,76.031c-5.128,8.881-140.568-77.733-146.566-67.344 c-4.156,7.198,113.91,62.783,112.618,65.02c-3.05,5.283-120.111-50.81-120.111-50.81c-1.379,2.389,89.217,44.668,86.255,49.799 c-1.217,2.109-95.096-45.424-98.761-39.078c-1.192,2.064,64.041,36.974,64.041,36.974s-46.937-21.721-48.53-18.963 c-1.008,1.746,25.694,14.834,25.694,14.834"/> <path fill="none" stroke="#DB3DA5" stroke-width="4.8187" stroke-linecap="round" stroke-linejoin="round" d="M1560.823,1382.021 c-2.044,3.541,94.246,51.69,93.067,53.732c-2.853,4.942-99.675-49.377-100.901-47.254c-2.173,3.764,104.207,53.31,101.239,58.45 c-3.298,5.713-113.906-49.426-113.906-49.426l96.745,55.856c-1.265,2.192-101.707-45.6-102.911-43.516l93.643,54.065 c-0.9,1.559-104.172-51.453-104.172-51.453c-1.278,2.214,105.557,60.943,105.557,60.943 c-4.923,8.527-128.276-67.922-133.036-59.676c-4.655,8.062,120.892,59.532,116.447,67.231 c-3.414,5.914-119.843-59.172-119.843-59.172s119.844,67.656,119.179,68.808c0,0-131.485-72.86-135.274-66.297 c-1.177,2.038,122.658,65.826,120.497,69.569c-2.995,5.188-116.722-59.756-118.595-56.511 c-4.816,8.342,121.073,67.699,120.119,69.351c-1,1.731-121.091-65.102-122.814-62.117c-1.304,2.258,108.181,62.458,108.181,62.458 c-3.832,6.636-113.167-55.938-114.357-53.876c-0.136,0.236,111.54,61.962,110.486,63.789"/> <path fill="none" stroke="#CB2179" stroke-width="4.8187" stroke-linecap="round" stroke-linejoin="round" d="M1227.58,1305.298 c-6.489,11.239,234.748,124.541,229.989,132.784c0,0-222.099-130.54-226.634-122.685 c-8.875,15.372,227.615,131.414,227.615,131.414c-5.639,9.767-232.752-124.717-235.236-120.415 c0,0,363.119,182.026,351.159,202.742c0,0-356.279-222.35-369.232-199.914c-10.638,18.426,360.545,190.556,352.922,203.76 c-1.682,2.914-366.746-198.947-366.746-198.947c-2.488,4.309,365.422,203.801,362.315,209.183 c-12.738,22.064-358.412-230.813-373.208-205.186c-14.208,24.609,373.575,192.327,363.461,209.844 c0,0-362.746-209.934-366.385-203.631c-14.586,25.263,371.552,190.675,361.229,208.556 c-1.343,2.326-382.263-211.981-382.263-211.981c-14.812,25.655,380.254,211.054,376.58,217.418 c-5.019,8.693-375.913-224.95-383.279-212.192c0,0,386.24,197.574,375.232,216.64c-6.786,11.754-383.011-233.863-395.299-212.579 c-2.482,4.3,227.1,131.116,227.1,131.116c-3.18,5.507-245.694-129.072-245.694-129.072 c-7.7,13.336,230.996,133.366,230.996,133.366c-5.543,9.601-235.82-130.271-238.243-126.072 c-4.147,7.183,109.778,61.924,109.148,63.016c0,0-115.158-59.308-117.327-55.55c-3.108,5.384,99.219,49.475,95.837,55.332 l-102.22-51.863c-1.885,3.266,84.736,48.922,84.736,48.922c-0.162,0.281-114.679-53.008-117.363-48.359 c0,0,87.468,42.34,83.935,48.46c0,0-85.262-43.129-88.012-38.366c-0.741,1.283,81.619,40.338,78.681,45.426 c-0.02,0.034-89.736-39.33-91.037-37.077c0,0,218.421,123,217.076,125.329c0,0-220.15-136.487-229.836-119.709 c-8.254,14.296,201.487,99.99,194.412,112.244c-6.032,10.448-201.555-117.536-206.005-109.828 c-4.345,7.526,171.896,95.581,170.31,98.329c-6.512,11.279-175.493-88.983-175.493-88.983 c-3.957,6.853,159.509,78.647,153.687,88.731c0,0-161.181-88.759-163.811-84.203c-6.377,11.046,156.943,80.629,152.621,88.115 c-6.177,10.698-172.14-98.132-178.807-86.584c-2.655,4.598,160.118,83.558,156.27,90.223c0,0-165.335-94.559-171.079-84.61 c-2.189,3.792,149.973,85.982,149.711,86.436c-0.767,1.329-158.388-76.043-158.388-76.043l137.648,79.471 c-3.115,5.396-142.4-81.916-147.907-72.378c0,0,137.767,67.761,132.667,76.595c-0.612,1.059-143.699-75.97-143.699-75.97 c-0.303,0.525,133.651,65.88,128.765,74.343c-5.391,9.337-131.885-61-131.92-60.938c-3.971,6.878,105.57,60.77,105.492,60.906 c-0.939,1.626-95.323-50.964-98.174-46.024c-1.444,2.501,78.483,44.246,78.021,45.046c-1.014,1.756-51.505-24.447-52.838-22.139 c-0.943,1.633,39.666,20.282,38.532,22.246"/> <path fill="none" stroke="#75D3BD" stroke-width="4.8187" stroke-linecap="round" stroke-linejoin="round" d="M1691.262,1411.605 c-3.42,5.923,90.391,45.701,87.582,50.566c-0.973,1.686-88.091-37.57-90.425-33.529c0,0,83.749,43.373,81.593,47.108 c-1.659,2.874-92.649-43.906-94.76-40.249c-0.514,0.889,96.106,51.913,94.558,54.593c-4.23,7.326-102.631-48.872-102.737-48.69 c-0.837,1.45,101.909,58.837,101.909,58.837c-0.038,0.066-111.563-47.514-111.563-47.514c-0.174,0.301,91.859,49.064,90.139,52.042 c-2.792,4.836-95.275-47.329-99.222-40.492c-3.152,5.46,92.559,50.121,91.123,52.61c-0.542,0.94-89.116-36.234-90.814-33.293 c-1.815,3.143,67.617,39.039,67.617,39.039c-1.1,1.905-79.024-28.986-80.041-27.224c-0.672,1.165,60.927,34.934,60.822,35.116 c-0.006,0.01-49.479-11.281-50.474-9.558l33.074,19.095c-0.636,1.102-26.702-7.3-26.702-7.3c-0.141,0.244,7.732,4.238,7.634,4.407"/> <path fill="none" stroke="#19B12D" stroke-width="4.8187" stroke-linecap="round" stroke-linejoin="round" d="M1608.88,1352.546 c0,0,187.422,92.226,180.502,104.213c-5.681,9.841-179.566-103.893-185.966-92.809c-1.091,1.89,69.447,40.095,69.447,40.095"/> <path fill="none" stroke="#516543" stroke-width="4.8187" stroke-linecap="round" stroke-linejoin="round" d="M1795.038,1388.831 l11.224,6.48c0,0-61.164-28.184-63.706-23.78c-2.241,3.881,67.026,36.049,65.88,38.036c-0.831,1.44-132.246-63.768-132.246-63.768 c-3.036,5.258,128.576,62.386,123.446,71.271"/> <path fill="none" stroke="#EB09C1" stroke-width="4.8187" stroke-linecap="round" stroke-linejoin="round" d="M1697.636,1325.98 c-0.116,0.201,39.235,22.643,39.231,22.65"/> <path fill="none" stroke="#D10737" stroke-width="4.8187" stroke-linecap="round" stroke-linejoin="round" d="M1741.806,1113.812 c-2.609,4.518,223.539,124.215,221.441,127.849c-6.606,11.442-199.816-108.347-199.949-108.117 c-1.651,2.86,209.839,116.813,207.96,120.066c0,0-185.54-103.751-188.717-98.248c-7.881,13.65,197.531,112.086,196.683,113.555 c0,0-170.87-99.515-177.06-88.794c-7.205,12.479,187.508,97.74,182.954,105.628c-6.896,11.943-173.683-86.594-176.399-81.889 c-7.015,12.151,175.638,100.849,175.397,101.266c-2.149,3.723-181.53-88.691-181.53-88.691 c-5.923,10.26,184.575,93.151,178.767,103.211c-3.032,5.252-170.689-89.235-171.276-88.219 c-4.143,7.177,173.466,90.386,169.237,97.709c-0.534,0.925-169.37-93.85-176.327-81.801 c-2.477,4.291,172.502,88.641,167.759,96.856c-0.954,1.653-171.679-104.737-177.629-94.432 c-2.432,4.213,176.642,94.853,173.554,100.201c-0.889,1.54-178.456-93.935-178.791-93.355 c-1.526,2.644,177.39,86.681,170.577,98.483c-3.459,5.992-180.657-88.363-180.657-88.363 c-3.977,6.888,181.58,89.888,175.108,101.099l-176.616-94.577c-5.162,8.941,175.779,87.37,169.666,97.957"/> <path fill="none" stroke="#EF1557" stroke-width="4.8187" stroke-linecap="round" stroke-linejoin="round" d="M1439.358,1015.318 c-6.758,11.705,356.112,190.938,349.763,201.936c0,0-337.389-183.322-340.147-178.545 c-8.305,14.385,345.839,173.122,334.343,193.033c0,0-324.563-200.555-334.495-183.351l325.508,187.932 c-9.937,17.212-324.082-177.447-324.572-176.597c-5.924,10.26,322.57,186.236,322.57,186.236 c-11.532,19.974-312.561-185.002-319.163-173.565c-2.833,4.907,75.654,41.504,74.712,43.135 c-0.487,0.844-65.846-28.748-65.846-28.748c-1.267,2.194,32.453,16.709,31.575,18.23"/> <path fill="none" stroke="#C9DB31" stroke-width="4.8187" stroke-linecap="round" stroke-linejoin="round" d="M1561.813,1129.442 c-5.821,10.082,212.129,109.082,206.331,119.125c-3.144,5.446-204.024-110.18-207.223-104.64 c-8.428,14.598,209.654,120.251,209.311,120.846c-8.18,14.168-198.765-126.112-207.506-110.972 c-0.439,0.76,382.921,197.47,372.698,215.177c-6.238,10.804-358.709-219.737-367.714-204.141c0,0,368.589,200.297,363.173,209.678 c-11.237,19.463-344.474-204.801-353.448-189.257c-10.087,17.471,348.013,183.854,340.621,196.658 c-1.092,1.891-329.525-174.476-329.525-174.476c-10.254,17.76,317.724,174.259,313.75,181.143c0,0-303.608-172.283-310.874-159.697 c0,0,292.232,160.82,288.811,166.745c-7.448,12.901-283.485-167.075-290.948-154.149c-4.299,7.445,270.368,148.92,267.26,154.303 c-9.888,17.127-262.954-160.773-273.651-142.247c-4.111,7.121,165.338,94.712,165.015,95.271 c-3.792,6.567-161.525-96.679-167.437-86.439c-0.641,1.111,79.558,45.933,79.558,45.933c-2.799,4.849-87.168-36.453-88.61-33.956 c-1.683,2.914,61.374,34.328,60.895,35.158c-1.145,1.984-64.5-25.707-66.219-22.729c-9.143,15.837,248.414,123.798,239.917,138.516 c-7.554,13.084-240.822-139.733-247.641-127.922c-3.287,5.693,240.852,130.753,237.257,136.98 c-3.732,6.464-246.705-132.244-246.705-132.244s246.211,132.898,242.205,139.837c0,0-240.823-147.149-247.25-136.018 c-6.722,11.642,246.335,142.221,246.335,142.221c-4.517,7.824-243.633-152.764-253.113-136.345 c-0.969,1.678,68.833,37.025,67.657,39.062c-0.261,0.452-77.675-37.002-80.772-31.636c0,0,76.129,40.783,74.757,43.161 c0,0-72.338-37.035-73.844-34.427c-2.335,4.044,149.695,77.946,146.023,84.306c0,0-164.337-84.451-167.548-78.891 c0,0,160.903,92.52,160.739,92.803c-4.896,8.481-162.576-91.941-167.105-84.096c-4.24,7.344,169.541,85.851,164.331,94.876 c-0.086,0.148-171.214-94.667-172.453-92.521c-2.1,3.637,55.452,30.018,54.587,31.516c0,0-80.647-30.198-82.019-27.82 c-2.567,4.446,66.495,38.391,66.495,38.391c-0.079,0.138-78.179-35.598-78.179-35.598c-1.37,2.374,65.578,34.256,64.017,36.96 c0,0-74.699-33.243-77.002-29.254l66.067,38.144c-1.888,3.27-81.004-34.302-83.238-30.432 c-0.911,1.578,69.672,38.929,69.111,39.901c-0.596,1.033-60.235-28.475-61.142-26.903l52.062,30.058 c-1.769,3.064-59.334-25.175-59.334-25.175s55.134,29.191,53.991,31.172"/> <path fill="none" stroke="#E9930D" stroke-width="4.8187" stroke-linecap="round" stroke-linejoin="round" d="M1381.13,1346.273 c-0.633,1.096,25.588,13.272,24.938,14.398c-3.077,5.33-89.305-44.102-91.342-40.574c-0.05,0.087,100.958,52.417,98.416,56.821"/> <path fill="none" stroke="#B7FF1D" stroke-width="4.8187" stroke-linecap="round" stroke-linejoin="round" d="M1000.518,1135.67 l287.668,166.085c0,0-262.855-161.657-271.178-147.241c-7.917,13.712,449.02,259.242,449.02,259.242 c-12.798,22.167-453.949-266.509-458.875-257.977c-8.745,15.147,459.609,265.355,459.609,265.355S968.671,1134.44,962.02,1145.959 c-6.215,10.765,496.999,281.605,494.688,285.608c-12.115,20.984-495.427-318.22-513.546-286.837 c-5.311,9.199,293.682,143.039,282.199,162.928c0,0-289.828-154.595-290.997-152.571c-8.389,14.53,281.176,162.337,281.176,162.337 c-8.789,15.223-300.764-158.096-300.764-158.096c-4.359,7.55,186.71,107.797,186.71,107.797s-197.931-111.626-200.1-107.869 c-3.134,5.429,178.843,103.255,178.843,103.255c-2.078,3.599-196.127-103.219-196.127-103.219 c-6.101,10.568,178.442,103.023,178.442,103.023c-7.742,13.409-189.104-104.12-191.499-99.972 c-1.214,2.102,171.746,93.758,169.408,97.808l-190.673-91.619c-5.711,9.891,164.71,82.044,159.059,91.833 c0,0-176.433-85.406-176.518-85.26c0,0,148.691,73.797,143.473,82.834c-2.7,4.676-164.767-77.348-164.767-77.348 c-1.223,2.118,146.657,84.276,146.485,84.573l-177.516-83.798c-4.876,8.446,154.776,75.973,148.98,86.013 c-1.774,3.073-152.688-90.765-156.818-83.611c-4.29,7.43,154.242,77.356,149.178,86.128c-1.774,3.073-176.162-90.77-176.162-90.77 c-1.227,2.126,170.544,90.787,167.219,96.544c-4.873,8.441-234.627-131.573-240.203-121.915c0,0,232.137,126.898,229.051,132.243 c-5.126,8.879-239.501-138.835-243.122-132.563c-1.905,3.299,233.782,132.262,232.608,134.296"/> <path fill="none" stroke="#812DE3" stroke-width="4.8187" stroke-linecap="round" stroke-linejoin="round" d="M1324.756,1268.649 l98.8,57.042c-1.512,2.62-89.743-39.653-93.068-33.894c-2.044,3.54,59.909,31.891,58.741,33.914 c-0.95,1.646-44.702-21.459-45.721-19.695c-0.718,1.244,25.861,12.999,25.025,14.448"/> <path fill="none" stroke="#B75151" stroke-width="4.8187" stroke-linecap="round" stroke-linejoin="round" d="M1075.958,979.549 c-1.171,2.029,470.935,264.62,467.785,270.076c-13.043,22.592-354.551-187.7-354.551-187.7l344.476,198.883 c-4.883,8.457-301.641-181.406-312.763-162.141c-10.976,19.011,303.205,164.728,298.733,172.473 c-5.492,9.512-290.864-158.287-291.437-157.296c-7.919,13.716,285.744,164.974,285.744,164.974 c-4.146,7.182-280.136-143.872-280.136-143.872c-2.487,4.308,267.831,152.054,266.715,153.988c0,0-260.419-140.548-262.711-136.579 c-7.155,12.393,262.64,134.82,255.359,147.432c-1.722,2.982-254.448-139.804-256.273-136.644l240.966,139.122 c-3.42,5.924-245.758-127.045-245.758-127.045c-4.391,7.605,240.777,119.196,232.196,134.059 c-9.647,16.71-234.952-118.011-234.952-118.011s218.644,112.639,212.757,122.836c-0.382,0.662-217.987-114.905-217.987-114.905 c-1.335,2.313,207.409,105.336,201.168,116.144c-0.989,1.713-212.238-114.297-216.606-106.731c0,0,101.746,56.6,100.818,58.207"/> <path fill="none" stroke="#D54B57" stroke-width="4.8187" stroke-linecap="round" stroke-linejoin="round" d="M950.553,1041.453 c-2.642,4.576,261.812,142.009,257.851,148.87l-251.564-131.079c-2.346,4.063,245.052,134.837,242.175,139.82 c-3.309,5.731-339.12-178.297-339.12-178.297l446.512,257.794c-2.417,4.187-454.99-281.292-466.652-261.094 c-2.968,5.141,462.954,248.098,454.645,262.49c-5.044,8.737-465.945-260.4-465.945-260.4 c-1.941,3.362,474.753,258.769,468.115,270.267c-18.477,32.004-473.563-277.624-478.959-268.277 c-12.775,22.127,482.42,258.868,473.909,273.611c-11.712,20.285-479.324-287.096-487.792-272.43 c-6.548,11.342,175.993,98.298,174.559,100.782c-4.884,8.459-191.314-106.214-194.568-100.577c0,0,179.706,92.151,174.682,100.853 c-5.378,9.315-189.78-94.796-189.78-94.796l165.773,95.709c-1.901,3.292-181.023-89.345-182.166-87.366 c-1.038,1.798,178.221,87.739,171.657,99.106c-7.293,12.632-180.862-100.429-182.168-98.166 c-3.418,5.92,168.046,97.021,168.046,97.021c-7.338,12.709-185.823-99.19-188.827-93.986 c-5.461,9.46,178.325,99.655,176.896,102.131"/> <path fill="none" stroke="#0797FB" stroke-width="4.8187" stroke-linecap="round" stroke-linejoin="round" d="M720.504,957.043 c-0.463,0.801,24.368,12.637,23.748,13.711c-1.016,1.76-55.764-21.337-55.965-20.989c-1.991,3.449,78.842,39.082,76.054,43.91 c-0.551,0.954-145.939-69.114-146.55-68.055c0,0,139.382,68.92,134.38,77.584l-155.158-70.536 c-6.024,10.435,142.371,68.624,136.493,78.804c-0.907,1.572-142.19-69.377-142.19-69.377s140.305,73.097,136.881,79.028 c-4.894,8.477-146.218-74.182-148.175-70.791c-3.696,6.402,140.513,78.674,139.452,80.513 c-6.007,10.404-143.486-85.022-147.496-78.077c-3.301,5.718,152.784,77.796,148.275,85.607"/> <path fill="none" stroke="#FD6565" stroke-width="4.8187" stroke-linecap="round" stroke-linejoin="round" d="M712.991,930.054 c-3.149,5.455,130.836,66.244,126.812,73.215c-3.484,6.035-90.555-46.138-91.569-44.383c0,0,70.523,39.946,70.189,40.524"/> <path fill="none" stroke="#019321" stroke-width="4.8187" stroke-linecap="round" stroke-linejoin="round" d="M561.127,829.699 c-10.446,18.094,298.81,172.518,298.81,172.518c-0.498,0.863-293.766-163.474-299.338-153.823 c-0.269,0.466,122.587,62.987,119.214,68.828c0,0-111.798-57.442-115.078-51.761c-1.169,2.025,73.784,42.089,73.563,42.472 c-1.504,2.605-73.604-34.794-76.233-30.241c-0.035,0.06,62.397,31.795,60.565,34.967c0,0-66.814-32.044-67.263-31.266 l55.627,32.116c-1.211,2.097-51.56-17.387-52.442-15.859c-0.999,1.73,36.093,20.838,36.093,20.838 c-0.728,1.26-44.324-9.392-44.324-9.392s35.522,18.948,34.846,20.119c-0.109,0.189-49.127-14.924-50.174-13.112 c-0.788,1.365,42.146,23.898,41.958,24.224c0,0-47.04-8.191-47.284-7.767c-0.246,0.427,22.449,12.961,22.449,12.961 c-1.295,2.242-37.892-10.227-37.901-10.212c-1.726,2.989,366.742,207.995,365.121,210.803 c-11.928,20.66-355.124-216.27-363.846-201.163c-0.709,1.227,347.633,194.155,344.796,199.068 c-10.493,18.174-343.111-217.656-354.503-197.924c-5.496,9.519,356.033,175.513,343.024,198.045 c-10.92,18.913-342.757-185.286-342.757-185.286s334.114,179.799,328.441,189.625c-6.774,11.732-331.896-175.287-332.392-174.428 c-6.659,11.534,310.993,179.552,310.993,179.552S508.25,964.721,499.419,980.017c-8.607,14.907,309.894,178.917,309.894,178.917 L496.315,992.607c0,0,303.979,156.632,295.808,170.785c-4.594,7.958-292.9-180.793-301.736-165.489 c-9.167,15.878,291.028,168.025,291.028,168.025c-0.089,0.154-284.912-152.212-284.912-152.212 c-11.106,19.236,255.547,145.669,254.737,147.072c0,0-249.823-142.832-256.307-131.602c-4.269,7.395,166.794,96.299,166.794,96.299 l-173.272-87.605c-6.764,11.716,162.667,93.916,162.667,93.916c-0.011,0.019-154.605-96.062-160.605-85.669 c-5.703,9.878,158.699,91.625,158.699,91.625c-4.991,8.645-162.377-76.643-162.377-76.643 c-1.817,3.147,405.261,216.732,397.794,229.666c-0.439,0.76-389.785-209.083-391.326-206.414 c-9.421,16.317,375.602,213.329,374.075,215.973c-4.85,8.401-370.003-194.83-370.003-194.83 c-11.69,20.248,351.018,189.345,345.252,199.331c0,0-313.051-197.287-326.824-173.431c0,0,316.138,176.073,313.346,180.91 c0,0-283.306-163.361-289.2-153.152c-11.784,20.411,285.419,142.382,275.717,159.185 c-9.443,16.357-264.008-157.083-274.206-139.418c0,0,264.914,131.912,255.805,147.689"/> <path fill="none" stroke="#F15981" stroke-width="4.8187" stroke-linecap="round" stroke-linejoin="round" d="M491.533,1144.556 c-0.54,0.935,2.586,1.493,2.586,1.493c-0.452,0.782-23.448,1.334-24.006,2.301c-6.159,10.669,325.479,187.916,325.479,187.916 s-324.207-206.355-338.459-181.669c-7.547,13.071,339.271,163.987,325.462,187.906c-2.353,4.076-328.796-180.539-329.594-179.157 c-7.969,13.803,215.827,124.608,215.827,124.608s-226.323-125.13-228.979-120.53c-8.289,14.357,199.035,114.913,199.035,114.913 c-4.114,7.126-194.446-114.169-198.55-107.061c-4.306,7.458,188.93,94.29,182.526,105.382 c-6.707,11.617-192.485-97.372-192.624-97.131c-6.252,10.829,179.314,87.555,172.398,99.534 c-2.545,4.409-188.386-95.994-188.386-95.994l166.293,96.009c-5.723,9.913-170.596-85.201-172.057-82.671 c-1.05,1.819,74.32,39.975,73.05,42.175c0,0-95.908-40.487-97.485-37.756c-0.38,0.658,90.214,49.586,89.132,51.461 c-1.062,1.839-96.329-48.373-97.322-46.653c-3.196,5.536,93.471,53.966,93.471,53.966s-95.339-51.733-97.076-48.724 c0,0,95.455,53.047,94.561,54.595l-99.635-50.233c0,0,98.681,47.947,94.772,54.717c-0.694,1.202-101.228-50.522-101.424-50.183 c-0.968,1.676,95.898,55.338,95.886,55.36c-0.725,1.255-111.201-63.965-114.395-58.433c0,0,104.801,52.009,101.121,58.382 c-4.242,7.347-107.144-54.364-107.483-53.776c-1.205,2.088,98.546,56.896,98.546,56.896"/> <path fill="none" stroke="#BD19E1" stroke-width="4.8187" stroke-linecap="round" stroke-linejoin="round" d="M462.044,758.541 c0,0,475.281,269.923,473.341,273.283c-19.086,33.057-449.451-282.63-465.239-255.283c-3.254,5.637,83.807,43.688,81.773,47.212 c-2.87,4.971-81.396-34.191-81.396-34.191c-2.681,4.643,80.091,41.363,77.979,45.021c0,0-79.431-41.982-81.432-38.517 c-1.29,2.235,82.251,43.441,80.499,46.476c0,0-89.06-38.905-90.472-36.459c-2.923,5.063,85.412,48.041,84.861,48.995 c-1.371,2.375-86.026-40.053-87.959-36.704c-1.736,3.008,83.891,44.122,82.024,47.356c0,0-87.854-40.893-88.778-39.293 c-1.73,2.997,73.238,41.421,72.865,42.068c-2.069,3.583-84.735-40.771-85.4-39.62c-1.918,3.323,89.37,51.598,89.37,51.598 c-1.999,3.462-97.164-44.823-98.258-42.928c-1.532,2.653,83.838,41.42,80.813,46.658c0,0-82.046-41.735-84.816-36.938 c-0.318,0.551,79.848,42.328,78.214,45.157l-78.303-35.041c-0.72,1.247,76.981,37.893,74.144,42.807 c-0.265,0.459-74.265-35.728-74.59-35.166c-1.844,3.195,73.042,35.572,70.184,40.521c-1.351,2.34-79.384-31.881-79.981-30.846 c0,0,74.78,42.636,74.547,43.04c0,0-77.425-32.493-77.605-32.182c0,0,67.97,37.383,67.165,38.778 c-1.025,1.776-73.979-39.885-76.094-36.221c-2.054,3.558,78.521,40.345,76.36,44.087c-2.615,4.529-75.855-30.267-76.722-28.765 c-2.907,5.034,78.988,40.22,76.657,44.258c-2.541,4.401-80.573-38.233-81.527-36.582c-2.067,3.581,80.099,46.245,80.099,46.245 c-2.186,3.785-74.815-26.554-74.815-26.554c-2.792,4.836,76.818,36.801,73.548,42.463c0,0-78.242-43.367-81.501-37.721 c-0.521,0.902,81.542,44.47,80.413,46.426c-0.158,0.274-71.084-33.371-73.152-29.788c-1.489,2.579,83.319,40.53,80.039,46.211 c-3.383,5.859-83.266-34.779-83.457-34.447c0,0,81.734,41.92,79.452,45.872l-84.324-28.848c-0.872,1.51,79.73,44.043,78.869,45.535 c0,0-80.633-39.264-81.225-38.237c-2.228,3.859,85.355,40.971,81.758,47.203c-0.251,0.434-89.794-38.832-89.794-38.832 c-0.046,0.08,93.424,46.26,90.099,52.019c0,0-93.949-46.314-96.869-41.257c-3.008,5.209,96.812,54.022,96.001,55.426 c-0.223,0.387-95.598-54.761-99.09-48.714c-1.238,2.145,94.059,51.044,92.647,53.49c-0.636,1.101-89.341-39.32-89.341-39.32 s85.131,44.201,82.988,47.913c-2.313,4.006-86.264-35.449-87.576-33.176c-1.098,1.901,93.884,45.581,90.15,52.048 c-0.886,1.535-92.552-49.026-95.486-43.943c-0.397,0.688,90.238,49.81,89.247,51.527c-0.712,1.233-88.965-38.842-89.196-38.442 c0,0,84.207,45.63,82.913,47.87c-1.419,2.457-99.657-53.213-103.685-46.236c0,0,93.624,47.93,90.972,52.523 c-3.515,6.089-100.403-48.008-101.622-45.896c-0.383,0.664,105.013,57.844,103.807,59.933 c-0.656,1.136-110.731-55.723-115.25-47.896c-1.589,2.751,100.878,58.242,100.878,58.242l-109.45-54.938 c-2.653,4.595,114.569,63.552,113.445,65.498c0,0-125.417-66.722-126.227-65.319c-0.929,1.609,115.584,65.874,115.212,66.518 c-2.384,4.129-118.957-58.66-118.957-58.66c-3.009,5.211,115.111,58.213,111.54,64.398c-0.21,0.363-117.236-61.04-118.113-59.521 c-1.688,2.924,120.76,64.335,118.428,68.374l-135.148-62.291c-0.187,0.324,119.725,57.679,114.769,66.262"/> <path fill="none" stroke="#091DFB" stroke-width="4.8187" stroke-linecap="round" stroke-linejoin="round" d="M299.698,924.361 c-0.107,0.186,62.512,33.917,61.57,35.548c-0.25,0.433-68.741-35.746-71.574-30.839l69.64,40.207 c-2.216,3.839-74.159-32.699-74.916-31.388c-3.144,5.446,72.835,40.638,72.223,41.698c-2.857,4.949-83.925-29.239-83.925-29.239 l80.22,46.315c-3.791,6.567-93.788-38.673-95.694-35.371c-2.592,4.489,83.258,44.854,81.866,47.265 c-0.956,1.655-79.507-43.36-81.538-39.843c-1.646,2.851,81.607,44.746,80.581,46.523c-1.006,1.742-80.337-40.367-81.995-37.495 c-0.516,0.894,72.642,37.241,70.607,40.765c-2.909,5.039-83.838-33.817-86.163-29.792c0,0,73.544,36.059,70.772,40.86 c-0.604,1.046-74.873-34.73-75.929-32.901c-1.73,2.997,75.034,43.193,74.978,43.289c-0.549,0.951-79.338-26.918-79.338-26.918 c-0.262,0.454,79.515,41.108,77.437,44.708c-1.983,3.435-78.649-41.984-81.843-36.452c-2.833,4.907,72.434,38.332,70.923,40.948 c-1.321,2.289-71.086-32.568-71.086-32.568c-0.013,0.023,65.964,36.71,65.369,37.741c-2.37,4.105-62.101-28.243-63.143-26.438 c-2.299,3.982,54.255,28.204,52.904,30.544c-1.677,2.904-50.296-12.47-50.428-12.241c0,0,36.733,19.09,35.816,20.678 c-0.8,1.386-38.925-17.169-40.01-15.29c0,0,42.268,22.522,41.453,23.933c-1.251,2.167-40.584-15.862-41.389-14.469 c-0.19,0.328,35.277,20.154,35.185,20.314c-1.41,2.442-37.824-6.337-38.927-4.426c0,0,160.767,85.184,157.461,90.91 l-151.404-75.272c-4.389,7.603,138.637,69.937,134.262,77.516c-2.206,3.822-135.193-65.565-135.193-65.565 c-3.275,5.672,124.761,65.823,122.073,70.479c-4.177,7.236-125.018-65.071-127.333-61.063 c-4.064,7.039,118.168,66.346,117.355,67.755c-4.031,6.982-113.9-59.644-118.646-51.424c-0.14,0.243,107.982,57.954,106.082,61.246 c-0.869,1.505-111.084-49.609-111.084-49.609c-1.365,2.364,98.335,55.337,97.713,56.414 c-3.725,6.452-103.046-51.764-103.989-50.133c-5.614,9.724,214.147,121.479,213.212,123.098 c-5.429,9.403-206.162-113.195-210.91-104.971c-7.78,13.475,185.922,98.78,182.214,105.201 c-2.301,3.985-188.33-101.035-188.33-101.035s186.818,92.228,180.049,103.952c-6.518,11.29-182.545-99.328-185.336-94.492 c-4.777,8.273,179.507,89.975,173.59,100.222c-3.805,6.591-173.442-91.192-173.442-91.192s171.039,91.672,167.974,96.98 c-3.644,6.311-159.603-91.785-164.765-82.844c-0.646,1.119,116.062,65.762,115.522,66.697 c-3.008,5.209-118.374-59.924-121.345-54.779c0,0,74.296,39.296,72.738,41.995c-1.372,2.376-76.168-32.422-78.638-28.144 c0,0,61.861,34.203,61.206,35.337c-2.745,4.755-76.614-25.727-77.228-24.663l62.482,36.074 c-0.844,1.462-62.231-23.428-64.264-19.907c-2.117,3.667,59.777,30.461,58.023,33.5c-1.196,2.071-69.313-28.198-70.094-26.845 c-8.176,14.162,209.999,107.101,203.875,117.707c-1.119,1.938-194.771-121.151-201.862-108.869 c-0.378,0.655,192.264,108.67,191.253,110.42c-4.527,7.841-194.687-119.199-202.666-105.379 c-1.902,3.295,185.381,104.849,184.436,106.484c0,0-169.192-91.489-175.163-81.147c0,0,133.863,71.449,131.336,75.827 c-0.96,1.662-112.4-60.293-116.997-52.332l84.502,48.787c-0.072,0.124-63.146-32.607-64.669-29.969 c-0.542,0.94,32.333,17.23,31.711,18.308"/> <path fill="none" stroke="#E70777" stroke-width="4.8187" stroke-linecap="round" stroke-linejoin="round" d="M276.378,806.406 c-1.048,1.816,112.516,59.304,110.066,63.547c-2.574,4.458-112.176-57.12-112.176-57.12 c-1.296,2.245,108.714,58.912,107.045,61.802c-2.927,5.07-116.65-62.68-119.36-57.986l122.085,70.486 c-2.712,4.697-121.757-57.574-123.426-54.682c-3.654,6.329,114.218,62.854,112.88,65.171 c-4.498,7.791-117.726-64.453-120.805-59.12c-3.11,5.386,114.835,58.988,111.668,64.472 c-0.855,1.482-113.291-58.908-116.426-53.479c-2.333,4.04,118.878,67.964,118.588,68.467 c-3.577,6.196-117.779-68.873-121.503-62.422l121.344,70.058l-128.191-57.142c-3.562,6.169,135.748,68.296,131.384,75.854 c0,0-142.158-79.773-144.656-75.446c-4.191,7.259,152.134,80.728,149.057,86.058c-2.488,4.309-152.928-79.751-154.594-76.865 c-0.212,0.367,69.212,34.37,66.792,38.562c-0.26,0.45-71.069-33.964-72.959-30.691c-0.954,1.652,57.074,31.919,56.627,32.693 c-2.088,3.616-60.609-30.643-62.643-27.119c-1.828,3.166,58.588,28.937,56.471,32.604c-0.253,0.438-67.513-24.857-69.217-21.905 c-2.095,3.629,58.567,33.814,58.567,33.814c-1.325,2.295-59.122-26.809-59.314-26.477c-1.724,2.986,48.175,23.795,46.434,26.809 c-1.447,2.507-51.321-25.111-52.788-22.57c-1.505,2.607,49.686,26.93,48.926,28.247c-1.627,2.818-60.124-21.933-61.812-19.009 c-1.823,3.157,60.602,30.503,58.66,33.867l-68.418-27.245c-1.318,2.283,71.856,41.486,71.856,41.486 c-0.368,0.638-66.959-37.43-69.737-32.62c-1.784,3.09,59.609,31.229,58.23,33.619c0,0-67.013-23.06-67.019-23.049 c0,0,65.974,33.893,64.156,37.041c-0.471,0.816-61.153-23.848-61.586-23.098c0,0,56.603,28.301,54.707,31.585 c-1.68,2.91-59.873-30.825-61.311-28.336c-0.521,0.902,63.681,35.672,63.207,36.493c-1.166,2.019-60.815-31.543-63.26-27.309 c-0.962,1.667,66.164,37.943,66.053,38.135c-1.739,3.012-61.448-25.824-62.097-24.699c-1.547,2.68,53.362,27.752,52.038,30.044 l-55.944-25.068c-1.346,2.331,52.788,30.254,52.692,30.422c-1.755,3.04-50.627-17.422-51.611-15.718 c-0.651,1.127,54.635,30.567,54.212,31.299c-0.547,0.947-49.892-12.277-49.892-12.277c-1.738,3.011,33.791,19.509,33.791,19.509 c-1.215,2.105-37.308-3.014-37.506-2.672c0,0,40.856,22.148,40.232,23.228c-0.743,1.287-46.184-19.485-46.184-19.485 s62.099,32.62,60.699,35.045c-2.467,4.273-63.549-19.906-64.67-17.964c-2.095,3.629,66.326,33.902,64.425,37.196 c-1.749,3.03-62.106-28.823-62.57-28.019c-0.342,0.592,61.846,34.903,61.498,35.506c-0.372,0.644-64.334-29.151-66.445-25.495 c-2.671,4.627,62.274,31.615,60.395,34.869l-69.757-32.012c-0.307,0.531,71.319,34.847,68.578,39.594 c-1.839,3.186-60.863-32.062-63.256-27.917c-0.425,0.736,55.538,31.171,55.151,31.841c-1.11,1.922-62.667-32.724-64.245-29.991 c-2.376,4.115,70.412,40.622,70.398,40.645c0,0-63.916-23.436-64.885-21.758c-0.815,1.411,54.523,30.434,54.071,31.218 c-0.699,1.211-57.314-18.909-58.358-17.102c-1.551,2.686,56.333,31.412,55.852,32.246c-0.844,1.461-56.887-26.633-57.838-24.985 c-0.949,1.645,66.495,35.621,65.296,37.698c-0.2,0.347-70.039-28.58-70.255-28.207c-1.729,2.994,63.953,36.923,63.953,36.923 c-2.159,3.74-60.955-20.733-62.562-17.949c-0.69,1.194,60.558,34.963,60.558,34.963c-2.097,3.632-64.854-27.403-64.854-27.403 s60.108,29.828,57.997,33.485c-1.52,2.632-58.195-22.457-59.536-20.135c-0.661,1.144,49.429,28.538,49.429,28.538 c-0.239,0.414-51.293-23.937-52.93-21.101c-2.308,3.998,53.237,27.525,51.846,29.933c-0.79,1.368-58.297-23.437-58.297-23.437 c-0.745,1.29,54.288,30.54,53.94,31.142c-0.083,0.144-56.198-15.883-56.299-15.709c-0.567,0.982,49.025,25.904,47.986,27.705 c-1.51,2.615-47.105-12.787-47.544-12.026c-1.278,2.214,40.654,23.124,40.504,23.385c-0.71,1.23-42.727-19.977-43.78-18.154 c-0.588,1.019,43.189,23.134,42.409,24.485c0,0-36.265-11.21-37.387-9.266c-0.859,1.488,27.324,13.315,26.258,15.16 c0,0-21.184-0.261-21.385,0.088c0,0,12.84,6.564,12.472,7.201"/> <path fill="none" stroke="#152719" stroke-width="4.8187" stroke-linecap="round" stroke-linejoin="round" d="M1203.821,1117.854 c-0.161,0.278,0.774-0.216,0.487,0.281"/> <path fill="none" stroke="#211F31" stroke-width="4.8187" stroke-linecap="round" stroke-linejoin="round" d="M1068.519,992.139 c-0.406,0.703,18.13,8.986,17.489,10.097c-0.54,0.935-100.047-43.992-100.719-42.828c0,0,115.122,64.468,114.257,65.966 c-1.798,3.114-137.868-70.548-137.868-70.548c-1.547,2.679,151.546,82.858,149.538,86.336c0,0-179.998-93.803-180.512-92.914 c0,0,201.193,115.585,200.944,116.015c-7.863,13.619-260.065-153.173-269.529-136.78 c-5.832,10.102,347.662,200.723,347.662,200.723S842.366,900.37,829.983,921.818c-6.798,11.775,398.609,195.165,383.466,221.394"/> <path fill="none" stroke="#79612B" stroke-width="4.8187" stroke-linecap="round" stroke-linejoin="round" d="M1506.53,1141.881 c-0.675,1.169,11.99,6.922,11.99,6.922c-2.891,5.008-116.285-58.489-117.946-55.613c-0.598,1.035,144.644,72.793,140.003,80.831 c-1.19,2.061-163.954-88.71-164.652-87.502c-3.162,5.477,164.65,95.061,164.65,95.061"/> <path fill="none" stroke="#D17BDD" stroke-width="4.8187" stroke-linecap="round" stroke-linejoin="round" d="M920.066,798.492 c-19.829,34.345,474.713,272.446,474.007,273.668c0,0-470.455-286.566-481.104-268.121c-9.774,16.929,471.925,272.2,471.81,272.4 c-0.624,1.08-462.006-278.053-470.011-264.188c-13.01,22.534,480.973,239.047,464.241,268.029 c-12.16,21.063-490.355-263.722-490.355-263.722c-2.708,4.691,655.656,378.543,655.656,378.543 c-14.265,24.708-670.589-373.48-670.589-373.48c-4.277,7.408,676.486,375.675,670.037,386.846c0,0-650.072-420.902-675.466-376.919 c-10.444,18.089,677.639,362.81,665.331,384.129c-28.096,48.663-665.551-394.436-675.42-377.343 c0,0,710.749,372.526,694.37,400.895c-25.985,45.008-705.512-423.049-720.063-397.846c-4.813,8.337,164.293,94.854,164.293,94.854 c-0.127,0.22-185.649-111.27-191.176-101.698l165.545,95.577"/> <path fill="none" stroke="#F9F565" stroke-width="4.8187" stroke-linecap="round" stroke-linejoin="round" d="M394.809,575.539 c0,0,386.8,213.701,382.636,220.915c-2.958,5.124-376.162-236.98-387.684-217.023c-14.355,24.864,393.53,204.883,383.865,221.624 c0,0-382.841-228.174-394.415-208.126c-2.824,4.891,79.105,42.391,77.685,44.851c-0.88,1.525-83.06-33.862-84.21-31.871 c-2.236,3.873,52.904,28.658,52.087,30.072c-0.906,1.569-58.757-16.136-58.757-16.136c-0.053,0.091,37.724,20.034,36.968,21.344 c-1.908,3.304-48.351-12.459-50.132-9.375c-0.563,0.974,33.852,18.837,33.546,19.368c-0.05,0.086-34.816-11.456-35.616-10.07 c-1.108,1.92,25.492,14.718,25.492,14.718s-21.247-4.69-22.052-3.295c-0.005,0.009,8.78,5.069,8.78,5.069"/> <path fill="none" stroke="#878BF1" stroke-width="4.8187" stroke-linecap="round" stroke-linejoin="round" d="M480.723,641.759 c-0.152,0.264,295.998,157.718,290.292,167.6c-8.039,13.924-287.578-173.981-298.52-155.029l456.19,263.381 c0,0-461.925-294.923-482.225-259.761c0,0,446.852,256.863,446.364,257.708c0,0-440.873-280.022-458.018-250.326 c-8.425,14.592,445.486,218.542,428.746,247.536c-5.619,9.732-439.92-245.451-439.92-245.451s444.577,227.15,431.791,249.295 c-17.058,29.545-426.884-277.194-445.701-244.603c-5.738,9.938,426.872,246.455,426.872,246.455 c-8.193,14.19-421.527-270.229-436.784-243.802c-8.436,14.611,425.953,235.447,421.416,243.305 c-0.724,1.254-432.771-243.386-435.038-239.458c-24.936,43.19,860.969,418.859,827.098,477.525 c-26.796,46.412-809.757-517.849-839.169-466.906c-2.626,4.548,862.177,436.673,835.718,482.502 c-11.089,19.208-836.927-469.73-836.927-469.73c-0.674,1.167,857.229,442.021,834.322,481.696c0,0-843.422-478.906-846.531-473.521 c-3.474,6.017,99.465,49.897,96.205,55.544c-1.385,2.399-98.628-46.318-99.439-44.913c-0.173,0.299,95.505,46.692,91.847,53.028 c-1.755,3.039-93.74-46.819-96.157-42.634c-2.251,3.898,92.463,52.271,91.981,53.105c0,0-99.959-39.141-100.539-38.135 c-1.824,3.158,89.281,43.447,85.774,49.522c-1.337,2.315-81.598-44.415-84.11-40.065c-2.19,3.793,81.812,42.547,79.782,46.062 c-0.429,0.742-76.959-42.271-78.954-38.816c-0.729,1.263,74.278,36.148,71.361,41.2c0,0-80.345-28.95-80.399-28.856 c-0.208,0.359,74.007,37.554,71.766,41.434c-2.71,4.693-65.682-33.963-67.155-31.411c-0.275,0.476,67.492,36.031,66.221,38.233 c-2.882,4.992-73.771-34.724-73.771-34.724s69.451,38.006,68.545,39.575c-2.137,3.701-84.968-40.878-84.968-40.878 c-2.866,4.964,85.99,49.29,85.836,49.557"/> <path fill="none" stroke="#C385AB" stroke-width="4.8187" stroke-linecap="round" stroke-linejoin="round" d="M1728.572,1116.092 c-0.118,0.204,7.508,3.421,7.112,4.106"/> <path fill="none" stroke="#2DCFD3" stroke-width="4.8187" stroke-linecap="round" stroke-linejoin="round" d="M1897.81,1113.659 c-0.145,0.251,12.831,6.645,12.501,7.217"/> <path fill="none" stroke="#330517" stroke-width="4.8187" stroke-linecap="round" stroke-linejoin="round" d="M1804.865,1052.105 c-0.573,0.992,17.224,9.944,17.224,9.944c-1.328,2.299-48.065-19.222-48.185-19.014c0,0,84.131,46.616,83.284,48.084 c-3.051,5.285-109.281-52.995-111.765-48.691c-2.502,4.333,174.829,98.45,173.752,100.316 c-2.572,4.454-201.052-96.523-201.052-96.523c-3.05,5.282,225.26,130.054,225.26,130.054 c-0.002,0.004-233.674-134.127-236.578-129.098c-9.532,16.51,243.242,139.094,242.661,140.101 c-6.438,11.151-261.352-132.001-261.352-132.001c-2.82,4.885,275.5,144.271,269.096,155.363 c-3.488,6.042-267.516-144.071-269.68-140.323c-9.24,16.005,275.398,146.226,269.866,155.807 c-9.722,16.839-272.802-148.789-275.875-143.467c-0.094,0.162,27.757,14.997,27.312,15.768l-33.287-10.227 c-0.473,0.819,22.748,11.016,21.831,12.604"/> <path fill="none" stroke="#2F47EB" stroke-width="4.8187" stroke-linecap="round" stroke-linejoin="round" d="M1502.708,925.672 c-0.634,1.099,23.792,13.736,23.792,13.736s-94.842-37.543-95.755-35.962c-1.225,2.123,210.028,104.579,202.805,117.09 c-5.88,10.184-253.958-153.312-263.306-137.122c-6.592,11.418,273.748,158.048,273.748,158.048s-336.218-188.934-341.3-180.132 c0,0,356.505,190.995,350.082,202.12c0,0-363.341-212.756-369.652-201.825c-12.68,21.962,371.36,203.643,366.7,211.714 c-8.01,13.873-387.655-211.769-387.655-211.769c-4.589,7.949,489.554,267.656,483.064,278.897 c-14.987,25.958-486.237-288.351-495.279-272.69c-9.705,16.809,530.315,256.03,508.601,293.641c0,0-506.33-318.715-523.265-289.383 c-17.755,30.752,541.586,301.75,536.851,309.951c-20.41,35.351-551.502-298.929-551.502-298.929 c-13.54,23.451,563.392,325.275,563.392,325.275"/> <path fill="none" stroke="#ED8535" stroke-width="4.8187" stroke-linecap="round" stroke-linejoin="round" d="M1072.026,675.006 c-1.067,1.847,21.051,11.669,20.841,12.033c-0.4,0.693-38.505-7.167-39.12-6.103c-2.324,4.025,100.583,57.314,100.255,57.882 c-1.823,3.158-113.847-51.77-113.847-51.77c-6.788,11.758,210.741,107.656,204.672,118.168 c-9.352,16.198-214.116-128.535-222.428-114.138c-6.839,11.845,253.48,123.339,243.518,140.595 c0,0-253.187-143.391-258.777-133.708c-6.994,12.114,255.324,134.793,249.86,144.257c-4.181,7.241-261.228-132.269-261.228-132.269 c-2.073,3.59,244.033,139.208,243.303,140.471c0,0-242.969-145.404-250.013-133.204c-1.072,1.857,247.898,139.04,246.13,142.103 c-0.333,0.577-258.633-139.683-258.633-139.683c-1.253,2.17,248.346,142.898,248.136,143.261 c-6.192,10.725-259.916-133.447-259.916-133.447c-7.084,12.27,240.374,127.306,235.406,135.912 c-0.238,0.412-241.388-146.724-247.905-135.435c0,0,253.604,140.829,251.183,145.021L945.121,744.181 c-1.258,2.178,52.781,28.252,51.819,29.918c-1.672,2.896-49.894-19.948-49.894-19.948s17.504,9.647,17.306,9.991"/> <path fill="none" stroke="#D10BAD" stroke-width="4.8187" stroke-linecap="round" stroke-linejoin="round" d="M1035.191,782.558 c0,0,173.602,93.63,170.745,98.579c-5.751,9.961-183.075-102.792-187.725-94.738c-16.336,28.294,430.283,221.369,418.568,241.66 c-4.699,8.139-438.687-244.546-440.545-241.327c-17.983,31.148,445.747,245.693,440.699,254.438 c-13.402,23.213-461.146-258.662-462.906-255.615c-3.461,5.995,461.307,257.891,457.651,264.225 c0,0-473.503-290.631-486.503-268.114c-11.346,19.651,494.236,249.447,478.691,276.372"/> <path fill="none" stroke="#9703F7" stroke-width="4.8187" stroke-linecap="round" stroke-linejoin="round" d="M954.498,486.357 c0,0,59.068,30.323,57.431,33.158c0,0-71.275-35.657-73.575-31.673l101.087,58.363c-0.482,0.835-104.202-52.07-105.931-49.076 l112.077,64.708c-1.85,3.204-121.051-68.411-124.311-62.765c0,0,130.492,66.249,126.556,73.067 c-5.202,9.011-128.416-73.03-132.503-65.951c-2.497,4.326,145.809,71.059,140.126,80.902 c-1.074,1.86-148.528-68.162-148.797-67.696c-0.936,1.622,147.884,72.029,142.102,82.043 c-3.463,5.998-141.729-74.921-141.729-74.921c-4.877,8.447,145.87,84.218,145.87,84.218 c-3.596,6.229-149.248-82.645-155.006-72.671c-1.029,1.782,165.839,80.6,159.281,91.961l-163.67-83.61 c-6.118,10.596,164.658,93.442,163.955,94.659c-3.031,5.25-161.423-86.322-161.933-85.439c0,0,153.02,79.281,149.095,86.08 c-1.424,2.466-154.193-77.684-157.79-71.454c-5.098,8.83,143.352,82.764,143.352,82.764c-1.36,2.355-141.617-73.746-145.3-67.366 c-0.501,0.868,139.436,76.372,137.647,79.471c0,0-136.755-74.291-141.554-65.979c-0.806,1.396,140.65,67.8,134.846,77.853 c-2.529,4.381-143.438-76.317-144.779-73.994c0,0,137.136,78.259,136.739,78.946c-1.539,2.666-132.618-77.54-137.015-69.924 c0,0,125.395,63.815,121.679,70.251c-4.028,6.977-115.061-57.012-118.545-50.978c-1.54,2.667,104.368,55.342,102.24,59.028 c0,0-99.893-46.507-102.452-42.074c-1.058,1.833,87.301,50.403,87.301,50.403c-3.136,5.432-90.996-36.821-91.091-36.656 c-2.812,4.87,88.097,49.483,87.499,50.518c-0.655,1.135-100.805-41.599-100.805-41.599c-0.635,1.1,94.831,53.74,94.393,54.498 c-2.045,3.542-113.778-61.897-117.567-55.335c-3.896,6.748,106.599,61.545,106.599,61.545s-117.249-63.697-120.03-58.88 l119.377,68.922c0,0-124.865-65.995-125.229-65.364c0,0,128.06,72.803,127.57,73.652c0,0-129.475-70.998-133.917-63.304 c-4.842,8.386,129.46,74.744,129.46,74.744c-1.546,2.678-142.884-67.165-142.884-67.165 c-6.163,10.675,140.252,80.974,140.252,80.974"/> <path fill="none" stroke="#8DF779" stroke-width="4.8187" stroke-linecap="round" stroke-linejoin="round" d="M727.561,623.797 c-0.604,1.046,87.623,44.096,84.811,48.966c-1.015,1.759-74.486-42.034-77.515-36.787c-1.1,1.906,63.986,33.472,62.483,36.075 c0,0-68.349-32.879-70.325-29.457c-0.102,0.176,67.108,33.509,64.841,37.436c-0.098,0.17-76.595-24.498-76.595-24.498 c-16.139,27.953,704.234,406.59,704.234,406.59c-25.693,44.501-688.085-442.68-714.095-397.631 c-9.586,16.604,700.174,404.245,700.174,404.245c-2.213,3.833-706.768-405.971-709.813-400.697 c-1.211,2.097,235.429,120.8,228.88,132.144"/> <path fill="none" stroke="#6FEF53" stroke-width="4.8187" stroke-linecap="round" stroke-linejoin="round" d="M733.859,528.859 c-1.942,3.364,119.452,68.966,119.452,68.966c-3.981,6.896-125.771-54.131-125.771-54.131 c-3.983,6.899,122.364,70.647,122.364,70.647s-120.374-71.274-125.563-62.287c-1.297,2.247,126.154,67.98,124.052,71.621 c0,0-124.63-59.202-126.507-55.951c-0.219,0.379,127.631,67.409,124.912,72.118c-4.44,7.69-140.358-75.609-146.129-65.612 c-1.202,2.082,135.799,76.757,135.086,77.992c0,0-156.949-81.859-157.981-80.072c-0.662,1.146,157.707,84.498,154.869,89.414"/> <path fill="none" stroke="#E39D3D" stroke-width="4.8187" stroke-linecap="round" stroke-linejoin="round" d="M642.426,539.41 c-0.338,0.585,20.772,11.993,20.772,11.993l-47.378-11.71c0,0,212.198,115.812,209.297,120.838l-224.26-120.208 c-4.274,7.403,221.652,127.971,221.652,127.971c-7.576,13.122-238.731-145.106-248.138-128.812 c-5.462,9.46,140.378,81.047,140.378,81.047c-4.118,7.132-152.507-78.546-152.507-78.546 c-0.554,0.959,155.793,84.599,153.477,88.61c0,0-167.82-89.344-169.326-86.734c-0.547,0.948,166.4,92.917,165.035,95.283 c-3.149,5.454-165.364-89.939-168.989-83.659c0,0,160.804,91.411,160.185,92.483c-0.155,0.268-168.215-89.553-168.215-89.553 c-6.163,10.675,174.302,93.641,171.274,98.885c-2.875,4.979-177.04-89.39-178.261-87.276c0,0,166.383,92.441,164.816,95.156 l-176.799-86.805l379.06,218.85"/> <path fill="none" stroke="#2B134B" stroke-width="4.8187" stroke-linecap="round" stroke-linejoin="round" d="M1312.094,812.233 c-3.843,6.656,117.773,66.478,117.115,67.617c-0.558,0.967-39.682-10.59-39.892-10.226c-0.182,0.315,27.247,13.676,26.357,15.217"/> <path fill="none" stroke="#E961B3" stroke-width="4.8187" stroke-linecap="round" stroke-linejoin="round" d="M1181.615,716.234 c-10.641,18.431,276.651,150.738,272.76,157.478c-8.328,14.425-235.181-133.119-238.344-127.641 c-5.526,9.571,226.189,127.384,224.801,129.789c-6.481,11.226-198.863-118.294-203.571-110.14 c-7.152,12.388,199.252,105.166,194.977,112.57"/> <path fill="none" stroke="#EB4BBB" stroke-width="4.8187" stroke-linecap="round" stroke-linejoin="round" d="M1283.495,669.526 c0,0,213.004,111.394,207.988,120.082c0,0-198.859-117.445-203.085-110.124c-8.839,15.309,218.36,110.617,211.668,122.207 c-5.569,9.646-212.102-120.404-219.79-107.087c0,0,222.67,126.075,221.594,127.938"/> <path fill="none" stroke="#C375E3" stroke-width="4.8187" stroke-linecap="round" stroke-linejoin="round" d="M1039.368,508.866 c0,0,463.596,234.012,449.027,259.246c-7.447,12.899-417.243-251.26-429.371-230.254c-0.198,0.343,434.667,250.955,434.667,250.955 c-8.481,14.689-426.38-227.301-426.38-227.301l199.433,115.143c-5.994,10.382-184.035-95.697-186.937-90.671 c-4.792,8.3,440.787,229.618,430.018,248.271c-4.477,7.755-425.977-241.379-429.442-235.377 c-17.285,29.939,420.108,242.549,420.108,242.549c-14.048,24.332-407.83-242.963-415.559-229.576 c0,0,420.498,219.62,410.471,236.986c-11.574,20.047-379.465-204.997-381.502-201.47c0,0,382.248,190.162,369.029,213.059 c0,0-347.036-203.594-352.151-194.735c-14.185,24.569,338.713,195.556,338.713,195.556 c-7.154,12.39-325.317-184.428-331.441-173.821c-5.85,10.132,329.412,164.463,318.274,183.756 c-7.614,13.187-306.327-175.646-308.722-171.499c0,0,12.432,6.464,12.123,6.999"/> <path fill="none" stroke="#059D5D" stroke-width="4.8187" stroke-linecap="round" stroke-linejoin="round" d="M921.731,428.717 c-3.753,6.5,584.277,282.511,560.539,323.627c-19.922,34.507-517.414-328.465-536.701-295.059 c-0.395,0.683,26.819,14.215,26.27,15.167"/> <path fill="none" stroke="#79EBBD" stroke-width="4.8187" stroke-linecap="round" stroke-linejoin="round" d="M884.317,315.083 c-5.905,10.228,398.144,229.868,398.144,229.868L879.568,324.307c-14.054,24.341,404.384,233.471,404.384,233.471 c-3.504,6.069-427.138-246.438-434.423-233.821c-6.646,11.511,443.752,245.974,439.324,253.644 c-2.517,4.359-464.2-261.099-466.398-257.292c-12.303,21.31,478.766,260.428,471.843,272.419 c-0.941,1.63-470.517-283.901-479.03-269.154c-14.829,25.685,485.29,260.361,476.707,275.227 c-12.359,21.407-481.888-294.903-493.446-274.883c0,0,500.148,284.77,498.42,287.763c-3.986,6.904-494.213-300.794-507.21-278.283 c-11.452,19.836,702.422,369.195,686.682,396.456c-8.321,14.412-697.898-387.169-697.898-387.169 c-30.067,52.077,720.947,369.976,700.914,404.673c0,0-696.213-430.724-713.781-400.296c-4.179,7.238,146.421,78.092,143.631,82.925 c-6.803,11.783-158.013-90.262-164.675-78.725c0,0,157.586,76.866,151.474,87.453c0,0-159.228-86.133-161.905-81.496 c-6.033,10.449,162.836,81.62,157.47,90.915c-5.666,9.814-155.904-87.635-158.488-83.159 c-2.156,3.735,154.747,89.343,154.747,89.343c-3.312,5.736-157.238-84.853-158.128-83.311 c-6.213,10.761,151.229,84.016,149.802,86.488c-1.488,2.578-155.37-86.827-157.492-83.152 c-1.668,2.888,159.362,92.008,159.362,92.008c-3.421,5.926-156.914-93.484-162.523-83.769 c-4.571,7.918,161.451,85.938,158.301,91.395c-0.147,0.254-166.286-80.052-166.286-80.052 c-2.055,3.56,158.768,90.399,158.22,91.348c-1.741,3.016-160.843-87.473-166.459-77.746c-2.5,4.33,176.267,101.768,176.267,101.768 c-0.953,1.651-180.881-101.727-186.427-92.121c-0.037,0.065,180.921,91.137,175.155,101.126 c-5.043,8.735-178.733-85.723-179.089-85.107c-1.359,2.355,187.983,103.822,185.944,107.355 c-3.264,5.654-207.418-107.153-207.418-107.153c-2.65,4.59,222.689,109.666,214.503,123.844 c-9.299,16.106-219.108-131.646-227.298-117.459c0,0,222.99,121.347,219.788,126.894c-8.577,14.855-228.7-137.879-236.663-124.086 c-5.477,9.486,231.147,121.456,225.952,130.454L621.946,445.511l236.288,136.421c0,0-232.239-143.274-240.732-128.565 c-2.329,4.034,237.639,132.927,235.788,136.132c-3.153,5.462-237.776-138.462-241.569-131.892 c-3.541,6.132,118.876,66.503,117.953,68.1c-0.846,1.465-139.126-68.924-139.126-68.924c-1.011,1.751,115.545,64.319,114.51,66.112 c-2.274,3.939-122.399-66.544-126.151-60.045c-1.842,3.19,111.608,62.109,110.6,63.855c-0.888,1.539-130.94-60.496-130.94-60.496 c-1.332,2.307,108.549,52.863,104.302,60.219L530.417,465.91l106.623,61.559c-3.153,5.461-109.285-57.466-109.907-56.388 c0,0,92.521,50.021,91.05,52.568c-3.069,5.316-110.199-50.152-112.104-46.853c-0.595,1.03,88.109,50.87,88.109,50.87 c-3.06,5.301-103.81-54.317-106.593-49.498c-1.23,2.13,87.973,44.159,85.101,49.133c-1.204,2.086-96.49-41.506-98.295-38.38 c-2.25,3.898,69.741,38.984,69.186,39.944c-0.189,0.328-63.944-34.471-66.248-30.48c-1.122,1.944,59.847,33.559,59.417,34.304 c-1.844,3.195-68.238-28.816-68.776-27.884c-0.686,1.189,50.606,29.217,50.606,29.217s-57.898-26.796-58.814-25.209 c-1.436,2.488,52.436,30.274,52.436,30.274s-71.066-23.599-71.685-22.528c-2.073,3.591,65.93,34.842,64.535,37.259l-96.506-40.497 c0,0,88.655,46.285,86.533,49.96c-2.639,4.57-117.409-53.839-117.908-52.976c-13.851,23.991,508.867,293.795,508.867,293.795 c-16.681,28.893-529.062-319.066-543.026-294.88c-21.56,37.342,543.149,284.006,530.34,306.192 c-15.536,26.91-513.352-328.136-530.606-298.252c-9.209,15.95,537.652,278.215,523.709,302.364 c-5.244,9.082-520.743-326.686-536.354-299.648c0,0,539.257,281.14,526.18,303.79c-21.198,36.716-543.513-296.763-543.513-296.763 c-0.894,1.548,80.27,42.622,78.658,45.413c0,0-84.338-40.289-85.8-37.757c-2.476,4.288,74.185,36.18,71.305,41.168 c-0.74,1.281-79.081-41.019-80.133-39.198c-2.762,4.784,79.889,43.785,78.876,45.539c-0.222,0.385-93.819-36.967-94-36.654 c-2.485,4.304,77.77,44.9,77.77,44.9c-1.282,2.22-87.682-39.19-87.772-39.035c0,0,88.147,50.244,87.867,50.73l-96.624-44.234 c-1.874,3.246,86.337,49.847,86.337,49.847c-1.524,2.64-100.668-40.168-101.174-39.292c0,0,104.458,52.618,101.128,58.386 c-2.253,3.902-103.079-43.017-103.162-42.872c-1.603,2.777,95.79,49.097,93.102,53.753c-2.303,3.988-104.16-53.119-106.704-48.713 l96.023,55.439c-1.912,3.312-100.317-51.056-104.042-44.604c-0.12,0.208,95.479,51.927,94.094,54.325 c-0.014,0.024-102.23-45.724-104.11-42.468c-2.56,4.434,104.324,50.593,100.15,57.822c-3.961,6.86-107.379-50.393-110.59-44.831 c-0.124,0.214,110.642,63.879,110.642,63.879c-2.81,4.868-109.107-58.728-112.996-51.991 c-2.306,3.994,110.235,63.644,110.235,63.644c-3.962,6.862-113.991-62.978-118.259-55.585 c-2.799,4.849,122.373,61.924,118.594,68.47c-5.142,8.907-121.972-66.609-124.598-62.062 c-0.854,1.479,123.223,63.293,119.824,69.18l-129.195-58.609c-4.663,8.076,139.424,78,138.343,79.872L169.054,672.21 c-2.583,4.474,145.992,84.039,145.884,84.226c-2.553,4.422-150.889-82.495-156.206-73.286c0,0,153.109,87.402,152.678,88.148 c-6.092,10.552-155.087-79.144-155.087-79.144c-6.42,11.12,151.913,87.707,151.913,87.707 c-6.497,11.254-156.768-88.833-162.09-79.615l252.982,146.059c0,0-249.014-143.92-254.152-135.021 c-1.526,2.643,253.968,124.199,244.256,141.021c0,0-254.196-135.289-254.852-134.152c-3.338,5.782,252.915,146.02,252.915,146.02 c-8.327,14.422-254.789-145.627-261.969-133.191l134.616,77.72c-5.04,8.729-134.822-65.726-135.623-64.338 c-3.717,6.438,127.198,62.107,122.291,70.605c0,0-131.08-69.179-135.151-62.127l124.913,72.119 c-3.441,5.959-125.921-55.923-125.921-55.923s123.269,59.681,118.294,68.297c0,0-127.248-63.964-130.47-58.383 c-2.388,4.135,119.308,60.938,115.868,66.896c0,0-109.893-58.616-112.494-54.112c0,0,111.477,56.401,108.03,62.371 c-4.801,8.316-118.92-62.491-121.288-58.39c-3.492,6.048,114.33,66.008,114.33,66.008S92.87,809.63,92.262,810.683 c0,0,111.036,58.574,108.64,62.724L87.005,822.698l101.868,58.813c-2.696,4.67-98.936-46.374-100.511-43.645 c0,0,104.392,54.041,101.694,58.713c-2.379,4.121-99.184-49.623-99.184-49.623c-2.741,4.748,94.448,51.551,93.158,53.785 c0,0-99.365-55.222-102.241-50.241c0,0,101.373,50.346,97.83,56.482c-1.888,3.271-91.88-47.074-92.589-45.845 c-0.468,0.81,91.875,50.401,90.73,52.383c-1.713,2.967-92.209-47.185-92.821-46.127c-0.769,1.332,80.386,46.411,80.386,46.411 c-2.621,4.54-90.878-42.967-93.452-38.508c-3.602,6.238,89.483,50.546,88.999,51.384c0,0-87.373-43.895-90.372-38.7 c-1.242,2.151,79.276,40.583,77.03,44.474c-0.14,0.242-87.313-38.018-87.313-38.018c-1.488,2.578,82.353,47.547,82.353,47.547 c-2.269,3.931-84.146-31.727-84.146-31.727c-0.421,0.729,81.885,47.276,81.885,47.276c-0.532,0.921-76.342-40.601-78.902-36.166 c-3.234,5.601,81.179,43.758,79.832,46.091c0,0-85.868-38.544-87.201-36.236c-1.302,2.255,83.685,41.878,80.898,46.706 c-1.88,3.256-84.162-41.305-85.524-38.946l88.034,50.827c-0.201,0.349-84.869-40.997-86.542-38.099 c0,0,89.367,49.521,88.469,51.077c-0.123,0.213-98.025-49.822-98.025-49.822c-2.253,3.902,102.386,53.351,99.891,57.672 c-1.166,2.019-100.011-49.124-102.765-44.353c-1.598,2.768,99.592,51.697,97.079,56.049c-0.437,0.758-91.687-39.13-94.228-34.73 c-0.958,1.66,92.708,53.175,92.557,53.437c-0.439,0.761-102.47-39.396-102.58-39.205c-1.224,2.12,99.117,53.413,97.466,56.272 c0,0-91.694-45.245-93.366-42.348c-3.519,6.095,88.067,48.639,87.112,50.294c-2.222,3.849-92.212-39.187-92.212-39.187 c-2.552,4.421,88.882,51.316,88.882,51.316c-3.192,5.529-87.121-42.576-90.182-37.275c-0.304,0.526,87.487,50.511,87.487,50.511 c-2.84,4.919-82.717-33.221-82.717-33.221l78.39,45.259c-1.244,2.155-71.06-28.78-71.06-28.78 c-2.111,3.656,65.353,33.019,63.312,36.553l-57.082-15.848c-0.616,1.067,39.132,22.593,39.132,22.593"/> <path fill="none" stroke="#E3D5DF" stroke-width="4.8187" stroke-linecap="round" stroke-linejoin="round" d="M1347.017,316.234 c-4.694,8.13,204.656,116.803,204.069,117.819c-4.165,7.214-215.87-115.505-215.87-115.505s216.397,116.725,212.842,122.884 c-0.498,0.863-229.862-132.53-236.736-120.625c-5.728,9.921,236.488,136.536,236.488,136.536s-248.122-150.122-255.143-137.961 c-1.345,2.33,270.88,133.557,260.992,150.684c0,0-284.201-167.585-290.704-156.321c-7.538,13.056,292.167,149.928,284.046,163.994 c-6.789,11.759-324.59-190.503-333.084-175.79l338.327,195.333c-8.779,15.206-339.519-212.567-352.069-190.83 c-0.662,1.147,345.923,199.719,345.923,199.719c-8.347,14.457-352.984-208.184-360.374-195.384 c-5.258,9.107,365.761,194.124,358.379,206.91c-14.735,25.522-357.393-220.695-367.48-203.224 c-12.652,21.914,387.343,189.267,372.462,215.041c0,0-385.51-214.096-386.105-213.065l383.609,221.477 c-8.653,14.987-384.231-212.257-385.544-209.983c-5.392,9.34,386.889,205.375,379.097,218.872c0,0-371.336-207.806-372.346-206.055 c0,0,377.539,205.056,371.946,214.743c-14.869,25.753-345.813-195.783-351.075-186.668 c-12.915,22.369,357.429,181.6,346.707,200.171c0,0-314.726-180.003-319.196-172.262l313.24,180.849 c-7.723,13.376-259.86-161.713-269.319-145.33c-0.128,0.222,262.434,143.793,259.09,149.585c0,0-216.736-117.91-217.874-115.94 c-8.269,14.323,222.069,111.484,214.826,124.03c-4.103,7.106-213.992-110.983-213.992-110.983 c-8.439,14.617,210.724,110.626,205.946,118.903c-4.298,7.445-203.329-119.443-208.986-109.645 c0,0,211.908,111.221,207.091,119.564c0,0-199.509-111.686-201.497-108.243c-5.371,9.302,207.372,111.372,203.755,117.638 c0,0-198.348-118.543-205.55-106.068c-5.928,10.267,203.022,114.405,201.805,116.512 c-6.877,11.911-201.404-107.938-205.201-101.361c-1.074,1.86,205.212,116.33,204.281,117.942c0,0-198.494-122.035-204.848-111.029 c-5.371,9.303,202.353,108.263,198.644,114.687c-7.076,12.256-194.187-98.982-194.187-98.982s195.685,109.34,194.11,112.069 c-3.256,5.639-197.094-103.536-198.805-100.572l184.004,106.235c-6.559,11.361-169.967-99.688-176.686-88.05 c0,0,182.883,90.216,176.227,101.745c-6.864,11.889-172.029-96.074-177.299-86.946c-4.208,7.289,178.739,91.406,173.634,100.248 c-6.025,10.435-176.064-107.619-182.75-96.039c-3.271,5.665,184.714,104.986,183.996,106.23 c-0.254,0.44-181.752-101.468-184.58-96.569c-1.018,1.764,186.949,106.995,186.542,107.7"/> <path fill="none" stroke="#AF19B1" stroke-width="4.8187" stroke-linecap="round" stroke-linejoin="round" d="M1502.703,346.574 c-0.634,1.098,20.054,11.009,19.808,11.436"/> <path fill="none" stroke="#8F855D" stroke-width="4.8187" stroke-linecap="round" stroke-linejoin="round" d="M1396.356,239.293 c-0.49,0.849,12.512,6.609,12.245,7.07c-0.073,0.127-47.342-11.419-47.728-10.751c-2.076,3.597,82.312,45.864,81.594,47.108 l-99.641-43.349c-5.365,9.292,129.05,69.971,127.086,73.373c-3.314,5.74-159.214-80.426-161.781-75.978 c-3.542,6.134,178.825,91.919,173.921,100.413c0,0-197.728-109.142-204.096-98.111c-4.325,7.492,265.045,153.024,265.045,153.024 c-3.523,6.102-293.331-174.261-302.46-158.449c0,0,317.316,162.245,308.241,177.963c-0.721,1.249-317.722-175.235-317.722-175.235 c-9.689,16.782,332.778,168.385,322.497,186.194c0,0-357.281-191.005-359.269-187.562c-1.778,3.079,109.566,62.134,109.08,62.977 c-1.891,3.276-134.214-71.182-138.656-63.489c0,0,105.829,55.271,103.305,59.643c-1.569,2.717-124.972-72.317-129.465-64.534 c0,0,106.707,59.839,105.941,61.165c-5.91,10.236-160.133-91.13-165.569-81.716c-3.063,5.305,144.982,83.705,144.982,83.705 c-4.123,7.142-155.105-94.191-160.233-85.308c0,0,143.769,77.782,141.507,81.699"/> <line fill="none" stroke="#17D53B" stroke-width="4.8187" stroke-linecap="round" stroke-linejoin="round" x1="1883.409" y1="139.638" x2="1906.752" y2="153.115"/> <path fill="none" stroke="#D7CF6D" stroke-width="4.8187" stroke-linecap="round" stroke-linejoin="round" d="M2418.783,1066.563 c-0.037,0.064,13.157,7.368,13.058,7.539c-1.606,2.782-48.201-10.829-48.201-10.829l43.984,25.394 c-1.136,1.968-75.028-30.862-77.616-26.379c-2.371,4.107,65.579,35.631,64.613,37.304c-1.341,2.322-74.129-32.156-74.269-31.914 c-1.93,3.343,69.658,40.217,69.658,40.217c-1.107,1.917-79.278-27.906-79.278-27.906c-0.668,1.157,69.303,39.319,69.003,39.839 c0,0-78.242-31.587-78.896-30.454c-2.183,3.781,78.779,40.352,76.557,44.2c-0.578,1-88.233-41.04-88.845-39.979l80.478,46.464 c-1.313,2.274-97.726-41.579-97.726-41.579c-1.817,3.147,100.85,50.024,97.298,56.175c-4.406,7.631-110.781-46.321-110.781-46.321 s102.297,52.722,99.552,57.477c-0.193,0.334-112.295-53.883-112.295-53.883c-0.662,1.147,99.57,50.339,96.475,55.7 c-0.567,0.982-125.057-58.256-127.562-53.917c0,0,108.379,60.302,107.396,62.005c-3.247,5.624-136.235-70.2-140.282-63.189 c0,0,130.411,64.297,125.65,72.544c-0.42,0.728-143.716-78.649-144.94-76.529c-0.446,0.772,131.85,76.124,131.85,76.124 c-2.785,4.824-159.378-78.182-159.378-78.182c-1.333,2.309,149.837,85.589,149.439,86.279"/> <path fill="none" stroke="#8F2949" stroke-width="4.8187" stroke-linecap="round" stroke-linejoin="round" d="M2250.906,1010.667 c-0.889,1.54,93.869,51.117,92.536,53.426l-104.603-46.231c-0.797,1.381,85.741,47.244,84.763,48.938 c-0.903,1.564-97.15-38.596-97.15-38.596l77.296,44.627c-0.448,0.777-87.16-46.992-89.325-43.244 c-0.483,0.836,73.849,39.515,72.497,41.856c-0.809,1.401-77.592-36.185-77.592-36.185c-0.307,0.532,76.148,41.538,75.098,43.358 c-3.054,5.29-81.024-40.589-81.916-39.044c-2.019,3.497,73.755,39.475,72.409,41.805c-1.941,3.361-82.456-41.649-83.859-39.219 c-2.896,5.015,76.372,42.629,75.738,43.727c-2.34,4.053-93.982-46.104-95.542-43.403c0,0,87.26,44.852,84.866,48.998 c-2.859,4.952-103.445-44.95-103.445-44.95l77.867,44.956c-1.002,1.735-98.342-40.361-98.944-39.318 c-0.481,0.833,82.292,40.485,79.25,45.755c-3.566,6.177-89.861-46.348-90.5-45.242c-1.522,2.637,72.851,42.061,72.851,42.061 c-3.672,6.361-96.83-41-98.333-38.395c-2.262,3.918,76.771,42.957,76.179,43.982c-2.357,4.083-99.426-46.204-101.155-43.21 c-0.053,0.092,80.524,44.923,79.845,46.099c-0.45,0.78-110.202-45.567-110.213-45.547c0,0,246.123,134.578,242.866,140.219 c-8.555,14.818-246.849-151.299-253.778-139.297c0,0,250.677,139.362,248.353,143.387c0,0-269.746-151.994-276.498-140.299 c-6.773,11.73,261.016,150.698,261.016,150.698s-275.757-169.62-283.262-156.62c-3.195,5.534,284.111,141.9,274.527,158.499"/> <path fill="none" stroke="#4B750D" stroke-width="4.8187" stroke-linecap="round" stroke-linejoin="round" d="M2412.879,834.397 c-0.414,0.717,21.709,11.252,21.154,12.213c-0.771,1.336-43.135-13.934-43.288-13.67c-2.077,3.598,82.194,40.739,79.286,45.776 c-0.357,0.619-96.756-40.222-97.152-39.535c0,0,114.773,56.779,110.666,63.893l-125.25-53.268 c-5.481,9.493,129.212,62.251,123.865,71.513c-0.823,1.426-129.44-62.016-129.44-62.016s136.497,71.107,133.163,76.882 c-4.725,8.184-141.359-71.221-143.25-67.947c-3.796,6.575,144.415,80.86,143.325,82.749 c-6.053,10.484-144.564-85.716-148.604-78.717c-3.376,5.847,156.225,79.547,151.614,87.534 c-5.904,10.225-156.135-95.556-162.233-84.993c-3.192,5.528,162.136,86.008,158.845,91.709 c-2.556,4.427-162.911-82.148-162.911-82.148s156.52,86.077,154.662,89.294c-3.117,5.399-157.303-88.061-161.007-81.647 c-0.895,1.55,154.407,89.147,154.407,89.147c-2.971,5.147-160.189-84.845-160.189-84.845s158.657,77.87,152.711,88.168 c0,0-169.845-80.054-170.254-79.344c-1.181,2.046,171.856,85.168,165.771,95.708c0,0-173.453-101.396-178.273-93.048 c0,0,172.179,87.636,167.082,96.465c0,0-173.508-91.424-173.607-91.252c0,0,176.072,92.179,171.969,99.286 c-7.114,12.322-169.104-101.32-173.87-93.064c-4.602,7.97,164.392,94.138,164.057,94.719c0,0-166.409-95.971-172.094-86.125 c0,0,172.267,89.727,168.053,97.026"/> <path fill="none" stroke="#C9D121" stroke-width="4.8187" stroke-linecap="round" stroke-linejoin="round" d="M2335.051,737.591 c-0.466,0.806,27.342,14.411,26.747,15.442c-1.028,1.781-28.595-8.716-28.894-8.198c0,0,51.616,29.233,51.371,29.659 c0,0-60.446-21.5-61.407-19.836c-0.448,0.776,72.662,38.285,71.074,41.035c-2.881,4.991-87.13-36.516-88.264-34.551 c-1.787,3.095,87.298,48.884,86.641,50.022c-0.207,0.359-94.996-38.464-95.185-38.136c0,0,85.922,43.07,83.091,47.973 c-2.61,4.521-88.923-46.683-90.332-44.242c-1.998,3.461,75.734,43.725,75.734,43.725c-0.1,0.173-87.864-39.805-91.065-34.26 c-0.603,1.044,71.846,41.48,71.846,41.48s-93.631-35.518-93.805-35.217c0,0,87.099,47.81,86.026,49.667 c-0.263,0.456-88.919-42.876-89.171-42.44c-0.279,0.483,85.592,43.2,82.9,47.862c-2.594,4.492-92.575-43.713-96.226-37.389 c-0.439,0.761,75.375,43.518,75.375,43.518s-84.08-47.6-87.253-42.104c-2.272,3.935,84.002,44.142,82.115,47.409 c-1.098,1.902-85.297-29.719-85.297-29.719c-3.181,5.509,80.442,44.854,79.754,46.046c-0.819,1.419-81.151-35.588-84.032-30.597 l72.047,41.596c-2.807,4.861-86.173-36.721-86.259-36.572c-2.248,3.893,77.601,39.101,75.132,43.378c0,0-70.862-38.039-72.83-34.63 l67.563,39.007c0,0-68.125-38.983-71.061-33.897c-1.311,2.27,68.257,39.408,68.257,39.408 c-0.543,0.941-85.784-36.783-86.549-35.458c-0.442,0.765,76.783,39.159,74.544,43.038c-3.506,6.073-88.943-35.246-88.943-35.246 s82.298,44.922,81.175,46.867"/> <path fill="none" stroke="#E3C38B" stroke-width="4.8187" stroke-linecap="round" stroke-linejoin="round" d="M2088.438,803.539 c-2.691,4.662,76.778,44.328,76.778,44.328c-0.152,0.264-94.546-39.523-96.25-36.57c-0.196,0.339,90.958,46.841,88.501,51.096 c0,0-95.604-46.943-98.386-42.124c-5.31,9.198,358.061,204.408,357.057,206.147c-7.583,13.135-350.728-219.332-363.983-196.374 c-0.217,0.376,373.109,189.07,361.702,208.829c0,0-366.637-210.021-369.197-205.588l360.204,207.964 c-8.903,15.421-348.559-201.806-355.047-190.568c-8.167,14.145,338.042,195.169,338.042,195.169 c-6.17,10.686-339.544-179.837-339.544-179.837s328.566,176.452,322.831,186.386c-0.788,1.365-323.602-188.436-331.162-175.341 c-6.861,11.883,316.952,179.208,315.313,182.046c0,0-311.916-164.71-313.716-161.592c-1.631,2.825,183.34,105.851,183.34,105.851 c-7.255,12.567-195.313-101.208-195.362-101.122c-0.862,1.494,186.883,106.026,186.073,107.429 c-5.925,10.262-178.241-104.009-182.573-96.505c-0.353,0.612,170.686,95.28,169.272,97.729 c-5.22,9.041-172.091-105.696-177.758-95.881c-2.741,4.748,177.241,87.346,170.752,98.584c-5.325,9.224-169.749-85.4-169.749-85.4 s164.74,88.602,161.921,93.485c-3.361,5.821-168.09-80.137-168.336-79.711c-3.2,5.543,147.257,85.019,147.257,85.019 s-147.884-87.651-152.121-80.312c-4.03,6.98,145.268,83.87,145.268,83.87l-154.42-74.773c0,0,138.261,71.22,134.535,77.674 c-2.177,3.771-140.661-82.161-144.848-74.909c-4.218,7.305,136.821,78.994,136.821,78.994 c-0.042,0.073-137.028-66.831-137.028-66.831c-5.455,9.448,122.812,69.987,122.414,70.676c0,0-129.584-66.022-132.867-60.334 c-3.066,5.311,119.939,69.247,119.939,69.247l-133.334-64.547c-4.673,8.094,114.069,65.858,114.069,65.858 c-0.008,0.014-111.591-67.3-115.89-59.853c-3.764,6.519,106.146,61.283,106.146,61.283c-3.591,6.22-118.552-51.341-118.552-51.341 c-0.39,0.675,91.047,48.868,89.446,51.642c-0.097,0.167-91.084-33.852-91.423-33.265c-1.526,2.643,59.93,34.03,59.683,34.458 c-0.84,1.455-69.276-21.205-69.276-21.205c-1.28,2.217,34.622,18.531,33.99,19.624c0,0-55.551-22.019-57.806-18.113 c0,0,316.298,176.163,313.504,181.002c0,0-325.483-189.78-332.272-178.02c-13.442,23.282,325.464,162.35,314.397,181.517 c-11.371,19.695-316.366-192.12-328.646-170.849c0,0,316.251,157.554,305.411,176.329 c-11.766,20.379-288.418-180.607-300.684-159.362c-7.947,13.764,290.072,164.176,288.644,166.649 c-8.916,15.443-263.25-135.634-263.25-135.634c-8.577,14.855,247.269,142.761,247.269,142.761l-215.909-106.649 c-4.483,7.765,187.199,97.468,182.604,105.427c-3.504,6.069-159.382-77.634-159.382-77.634 c-1.586,2.747,138.73,71.557,135.033,77.961c-2.59,4.487-118.926-58.244-121.901-53.092c-0.268,0.464,100.024,49.334,96.38,55.645 c-2.373,4.111-66.146-22.863-66.146-22.863c-0.65,1.126,33.104,16.295,31.884,18.408"/> <path fill="none" stroke="#230DD3" stroke-width="4.8187" stroke-linecap="round" stroke-linejoin="round" d="M2142.153,687.85 c-5.696,9.866,122.41,70.673,122.41,70.673c-2.858,4.95-135.105-70.004-138.639-63.882c-2.5,4.33,134.27,77.521,134.27,77.521 s-143.2-83.162-149.36-72.492c-2.979,5.161,136.606,66.279,131.155,75.722c-0.955,1.654-136.046-68.16-136.37-67.599 c-4.64,8.036,126.155,72.835,126.155,72.835s-137.886-71.625-139.483-68.859c-5.193,8.994,124.825,72.068,124.825,72.068 c-2.55,4.416-121.657-68.54-124.2-64.136c-2.836,4.913,122.068,60.734,117.849,68.04"/> <path fill="none" stroke="#77271F" stroke-width="4.8187" stroke-linecap="round" stroke-linejoin="round" d="M2018.115,640.836 c0,0,86.691,49.237,86.339,49.848c-3.409,5.905-84.435-41.94-87.255-37.055c-2.917,5.052,74.199,38.628,72.376,41.786 c-2.711,4.695-77.12-31.722-77.12-31.722c-2.512,4.35,74.73,38.576,72.752,42.003c0,0-75.822-39.68-77.728-36.379 c-1.202,2.081,76.545,40.425,74.913,43.251c0,0-83.408-35.422-84.725-33.141c-7.61,13.182,214.081,120.29,212.648,122.772 c-3.458,5.989-209.116-117.914-213.991-109.469c-4.487,7.771,213.566,112.158,208.74,120.516c0,0-212.712-116.178-215.021-112.179 c-4.485,7.768,201.973,114.372,201.004,116.05c-5.338,9.246-212.719-117.086-214.433-114.118 c-5.032,8.716,220.279,127.178,220.279,127.178c-4.887,8.464-230.117-125.236-232.793-120.602 c-4.116,7.128,224.495,110.85,216.371,124.922c0,0-218.666-131.884-226.316-118.634c-0.878,1.521,222.121,117.825,217.61,125.637 l-225.394-119.964c-1.286,2.227,139.761,68.989,134.694,77.766c-0.517,0.896-142.051-75.577-142.684-74.48 c-3.265,5.655,132.716,64.942,127.658,73.703c-2.596,4.496-147.694-72.592-148.842-70.603c0,0,131.118,74.747,130.704,75.462 c0,0-141.648-69.937-141.986-69.352c0,0,129.15,71.149,127.671,73.711c-1.952,3.381-138.144-81.346-142.171-74.371 c-3.877,6.715,145.722,74.718,141.645,81.779c-5.467,9.469-152.806-76.879-154.619-73.739 c-5.733,9.93,156.452,79.709,151.854,87.673c-5.311,9.198-164.089-88.85-166.081-85.4c-4.23,7.326,162.291,93.699,162.291,93.699 c-5.079,8.797-166.487-79.482-166.487-79.482c-5.855,10.141,167.923,81.118,161.068,92.992c0,0-162.942-100.808-169.9-88.758 c-1.078,1.868,168.789,92.047,166.449,96.099c-0.355,0.614-154.06-87.228-158.706-79.182c-3.02,5.231,169.431,82.461,162.78,93.981 c-6.925,11.995-165.291-82.599-165.682-81.92c0,0,163.387,83.874,158.859,91.717l-161.397-73.346 c-1.647,2.852,153.539,84.89,151.913,87.707c0,0-150.911-81.084-152.043-79.124c-4.055,7.023,157.127,75.594,150.578,86.936 c-0.439,0.76-153.712-75.735-153.712-75.735c-0.079,0.136,156.457,77.32,150.823,87.078c0,0-146.884-80.901-151.547-72.825 c-4.704,8.147,148.493,82.803,147.224,85c-0.337,0.584-142.699-86.07-147.972-76.936c-1.878,3.253,141.789,76.917,139.647,80.625 c-0.971,1.682-134.157-65.194-134.157-65.194s128.485,66.88,125.324,72.356c-3.456,5.987-126.062-59.924-128.023-56.528 c-1.544,2.674,130.533,63.238,125.283,72.332c-1.211,2.097-124.923-70.198-128.933-63.253 c-0.538,0.932,120.709,66.592,119.367,68.917c-0.914,1.584-112.929-52.829-113.226-52.315c0,0,105.838,57.376,104.223,60.173 c-1.498,2.594-104.949-56.787-109.202-49.421c0,0,97.129,49.733,94.381,54.491c-3.267,5.659-93.645-43.908-94.778-41.945 c-0.34,0.59,93.697,51.621,92.625,53.477c-0.531,0.92-90.773-42.21-94.43-35.876c-1.119,1.938,68.819,39.733,68.819,39.733"/> <path fill="none" stroke="#1361A9" stroke-width="4.8187" stroke-linecap="round" stroke-linejoin="round" d="M1819.846,882.573 c-0.014,0.025,0.432-0.044,0.304,0.176c-0.062,0.108-18.652-1.911-19.356-0.691l27.043,15.613 c-0.951,1.648-33.67-8.325-33.995-7.762c-1.683,2.915,37.177,20.708,36.849,21.275c-1.716,2.973-51.8-12.913-51.8-12.913 l58.103,33.546"/> <path fill="none" stroke="#AD390D" stroke-width="4.8187" stroke-linecap="round" stroke-linejoin="round" d="M1646.34,695.376 c-0.659,1.141,71.127,37.509,69.587,40.176c-2.846,4.929-123.71-63.779-123.71-63.779 c-2.832,4.904,242.124,131.371,238.478,137.685c-6.442,11.158-251.558-148.084-257.522-137.754l262.723,151.683 c-6.178,10.701-269.45-147.774-273.254-141.186c-8.383,14.52,267.358,147.272,264.289,152.588 c-10.585,18.333-271.314-162.749-278.559-150.2c-7.289,12.624,276.231,142.343,268.81,155.198 c-2.123,3.677-273.375-162.06-281.155-148.585c-5.499,9.524,280.226,160.21,279.543,161.394 c-8.582,14.864-278.152-173.498-287.087-158.022l280.714,162.07l-296.158-154.118c-7.224,12.513,284.687,143.924,275.836,159.254 c0,0-282.858-166.852-287.887-158.141c-8.263,14.312,293.103,155.211,287.035,165.72c-4.708,8.155-285.04-159.461-288.194-153.999 c-0.876,1.518,283.587,140.591,273.568,157.944c-1.021,1.768-266.396-159.495-273.811-146.653 c-4.472,7.745,269.789,150.92,267.692,154.552c-9.297,16.103-258.024-160.847-267.085-145.153 c-8.934,15.475,279.29,137.351,268.943,155.274c-1.016,1.76-252.963-143.786-259.802-131.94 c-16.251,28.147,411.651,237.667,411.651,237.667c-9.426,16.327-402.143-227.559-403.507-225.197 c-12.996,22.509,402.657,202.184,389.541,224.901c-11.19,19.382-376.435-235.631-387.781-215.978 c-10.837,18.771,387.319,210.978,381.845,220.459c-10.807,18.719-367.89-221.625-379.106-202.199 c-11.329,19.622,380.182,191.621,368.111,212.529l-366.407-199.289c-7.281,12.611,362.484,209.28,362.484,209.28 c-1.933,3.348-338.56-221.482-353.134-196.239c-9.42,16.315,345.356,182.563,338.069,195.184c0,0-333.906-177.211-333.938-177.155 c0,0,330.256,169.724,321.185,185.436c-2.556,4.427-311.835-173.005-314.184-168.935c0,0,302.676,153.261,293.371,169.378 c-8.516,14.75-292.224-178.477-299.509-165.859c-2.471,4.279,288.86,161.584,286.613,165.476 c-5.535,9.587-275.595-176.703-287.201-156.602c-3.949,6.84,246.656,141.351,246.199,142.143 c-7.024,12.167-235.807-131.05-238.431-126.505c-5.947,10.301,214.369,112.016,209.281,120.829l-208.631-113.222 c-4.903,8.492,193.357,110.821,193.005,111.431c-6.364,11.022-171.59-93.225-175.157-87.047 c-1.962,3.399,152.076,84.855,150.8,87.065c-0.999,1.73-87.48-33.979-87.48-33.979c-0.73,1.264,9.836,5.679,9.836,5.679"/> <path fill="none" stroke="#B7BBA5" stroke-width="4.8187" stroke-linecap="round" stroke-linejoin="round" d="M1698.237,704.997 c-2.492,4.316,136.429,68.489,131.978,76.198l-84.82-30.81c-2.379,4.12,90.597,44.54,87.234,50.365 c-1.415,2.451-73.099-41.025-75.749-36.435c-0.109,0.188,80.576,40.81,78.103,45.093"/> <path fill="none" stroke="#BB6D6D" stroke-width="4.8187" stroke-linecap="round" stroke-linejoin="round" d="M1849.94,626.148 c-3.191,5.528,130.355,63.606,125.309,72.347c-0.657,1.138-120.656-56.229-121.475-54.811c0,0,103.464,57.941,102.687,59.286 c-1.294,2.242-100.247-48.828-100.247-48.828c-0.896,1.551,87.177,47.646,86.014,49.66c0,0-89.555-40.975-89.804-40.544 c0,0,72.928,41.901,72.839,42.054c-1.755,3.04-62.746-22.273-64.859-18.614c-0.859,1.488,46.358,26.765,46.358,26.765 s-45.475-16.085-46.874-13.662c-0.719,1.245,40.351,19.599,38.75,22.372c-0.186,0.323-29.814-0.83-29.814-0.83 c-0.254,0.44,7.099,3.062,6.65,3.839"/> <path fill="none" stroke="#413DEF" stroke-width="4.8187" stroke-linecap="round" stroke-linejoin="round" d="M1724.949,538.106 c-0.518,0.897,7.377,4.259,7.377,4.259c-1.743,3.019-71.827-31.298-72.828-29.564c-1.357,2.35,330.138,166.277,319.604,184.523 c-2.475,4.286-337.83-190.286-339.281-187.772c-3.863,6.69,201.229,116.18,201.229,116.18 c-8.312,14.397-210.448-125.637-215.992-116.036c-5.433,9.41,220.425,114.867,215.057,124.163 c-5.644,9.776-214.235-134.87-223.226-119.298c-2.623,4.544,227.964,131.615,227.964,131.615s-248.377-143.906-257.216-128.595 c-4.205,7.283,257.296,131.7,250,144.338c-6.206,10.749-257.541-136.577-258.673-134.616 c-1.582,2.74,259.928,149.346,259.615,149.889c-6.474,11.213-262.174-143.753-262.174-143.753s261.368,146.565,259.49,149.817 c-3.636,6.298-262.317-154.786-269.317-142.661c0,0,273.916,141.567,266.737,154.001c0,0-270.733-139.672-272.019-137.443 c-0.556,0.964,276.536,157.627,275.657,159.151l-279.357-147.96c0,0,286.014,150.781,279.801,161.543 c-7.07,12.245-287.483-155.205-287.483-155.205c-5.047,8.742,284.821,157.491,281.811,162.704 c-3.191,5.528-280.539-146.499-280.539-146.499c-9.322,16.146,287.254,165.846,287.254,165.846 c-11.592,20.077-291.235-164.206-292.631-161.789c0,0,295.425,164.897,292.971,169.147c0,0-288.999-179.271-297.927-163.807 l289.826,167.331c-4.953,8.579-290.662-156.091-290.662-156.091s292.662,163.763,290.408,167.667 c-5.338,9.246-289.672-159.01-289.672-159.01c-2.757,4.775,75.352,41.592,74.524,43.026c0,0-65.492-35.127-67.578-31.514 c-0.8,1.385,42.366,24.46,42.366,24.46c-0.551,0.954-42.215-14.781-43.152-13.158l19.898,11.488"/> <path fill="none" stroke="#C9B765" stroke-width="4.8187" stroke-linecap="round" stroke-linejoin="round" d="M1697.105,497.456 c-12.285,21.279,295.055,169.341,294.618,170.098c0,0-257.669-152.494-263.46-142.464 c-5.382,9.323,262.617,151.476,262.554,151.585c-0.315,0.547-235.15-137.941-239.199-130.928 c-6.705,11.613,248.061,123.303,239.438,138.24c-5.973,10.346-240.357-130.454-240.357-130.454 c-0.956,1.655,230.616,133.146,230.616,133.146"/> <path fill="none" stroke="#318FC7" stroke-width="4.8187" stroke-linecap="round" stroke-linejoin="round" d="M2332.902,667.145 c0,0,200.524,110.702,198.329,114.505c-1.522,2.636-194.907-119.413-200.835-109.146 c-7.712,13.358,213.068,111.022,207.875,120.017c0,0-199.412-109.203-205.328-98.956 c-7.376,12.776,204.609,109.562,200.899,115.989c-2.103,3.642-190.312-99.47-193.058-94.714 c-7.644,13.24,187.909,102.043,185.118,106.878c-1.688,2.923-105.072-42.876-105.072-42.876 c-0.138,0.24,101.156,53.817,99.17,57.256c-1.387,2.402-35.475-7.031-36.77-4.788c-0.341,0.59,18.514,10.261,18.329,10.582"/> <path fill="none" stroke="#D33D41" stroke-width="4.8187" stroke-linecap="round" stroke-linejoin="round" d="M2406.097,483.497 c-0.077,0.133,150.795,80.419,147.919,85.401c-2.509,4.346-94.085-44.887-97.501-38.97l100.808,58.201 c0,0-84.058-37.851-87.51-31.873c0,0,108.128,62.159,108.012,62.361c0,0-90.396-45.811-93.744-40.012 c-1.945,3.369,99.234,48.368,95.369,55.061c-1.082,1.874-87.455-41.956-87.455-41.956s97.729,50.117,94.998,54.847 c-3.066,5.31-80.682-41.669-84.064-35.812c-1.114,1.929,86.07,49.692,86.07,49.692c-1.487,2.575-79.226-43.76-81.995-38.964 c-1.568,2.716,76.198,42.046,75.354,43.506c-0.118,0.204-74.196-31.979-74.565-31.339c-2.269,3.929,76.115,36.828,73.033,42.166 c-2.16,3.74-70.96-28.855-73.331-24.75c-0.219,0.38,69.174,34.827,66.961,38.66c-0.794,1.375-64.47-23.752-64.47-23.752 c-0.051,0.089,62.263,31.907,60.514,34.938c0,0-69.231-25.293-69.468-24.884c-2.258,3.911,66.862,33.708,64.743,37.379 c-0.864,1.496-63.093-25.097-63.599-24.221c-0.107,0.185,59.095,28.91,56.84,32.817c-1.007,1.743-55.549-22.391-56.936-19.99 c-1.339,2.32,54.836,30.998,54.549,31.494c0,0-64.134-21.775-64.501-21.14c-1.216,2.106,59.938,29.205,57.6,33.255"/> <path fill="none" stroke="#95DF85" stroke-width="4.8187" stroke-linecap="round" stroke-linejoin="round" d="M2414.331,373.83 c-0.243,0.422,22.492,11.095,21.673,12.513l-96.096-40.998c-1.583,2.741,117.623,63.041,115.515,66.693 c-5.17,8.956-133.173-59.174-133.173-59.174s155.652,74.946,149.192,86.136c-6.276,10.871-156.66-80.164-157.175-79.271 c0,0,185.703,105.263,184.858,106.728c-1.529,2.649-182.76-93.995-183.244-93.156c0,0,201.515,98.322,193.711,111.839 c-5.73,9.925-174.815-81.699-174.815-81.699c-2.322,4.022,187.984,108.533,187.984,108.533 c-4.796,8.307-139.911-61.165-139.911-61.165c-0.804,1.392,158.864,79.925,153.757,88.771 c-2.027,3.51-153.564-89.485-157.657-82.397c-0.312,0.54,161.774,81.425,156.588,90.406c-3.046,5.276-159.177-91.272-165.28-80.702 c-0.218,0.378,26.213,15.134,26.213,15.134c-0.561,0.971-27.079-9.571-27.473-8.888c-0.015,0.027,32.011,15.358,30.658,17.701 c-0.894,1.549-41.174-7.917-41.174-7.917c-0.894,1.547,70.431,37.32,68.983,39.828c-1.881,3.258-66.629-25.395-66.629-25.395 c-2.867,4.966,81.23,44.744,80.298,46.36c-3.061,5.301-74.939-41.907-77.627-37.25c-1.862,3.225,84.789,43.586,82.465,47.611 c-2.624,4.545-65.117-27.74-65.529-27.027c-0.881,1.526,88.273,50.964,88.273,50.964c-1.515,2.624-64.278-33.075-66.252-29.657 c0,0,83.751,44.541,82.101,47.401c-0.138,0.239-82.703-40.233-85.519-35.355c-3.262,5.651,92.257,50.528,91.072,52.581 c0,0-101.215-51.432-103.278-47.858c-2.864,4.96,97.591,55.703,97.313,56.184c-0.02,0.034-102.589-47.513-104.537-44.138 c-0.034,0.059,112.798,62.718,111.757,64.523"/> <path fill="none" stroke="#CB2D4B" stroke-width="4.8187" stroke-linecap="round" stroke-linejoin="round" d="M2180.488,339.543 c-2.299,3.982,146.389,72.392,141.138,81.486c-1.362,2.358-145.443-72.327-145.443-72.327 c-4.606,7.977,154.632,74.111,148.065,85.485c-5.662,9.806-167.094-83.704-168.829-80.699 c-1.11,1.923,196.455,103.056,191.966,110.832c-5.208,9.021-189.814-112.482-194.893-103.684 c-6.726,11.65,200.845,103.246,195.34,112.78c-0.773,1.339-185.254-93.363-186.618-91.001l184.851,106.724 c-4.768,8.258-164.878-82.809-164.878-82.809c-1.878,3.253,170.375,85.457,164.785,95.139l-128.697-56.809l145.306,83.893 c-2.891,5.007-124.683-53.091-124.683-53.091c-3.996,6.92,129.245,67.373,126.107,72.808 c-0.688,1.192-114.31-65.025-119.023-56.861c-1.659,2.873,117.425,63.4,115.521,66.696c-3.051,5.284-99.128-50.766-102.317-45.243 c0,0,232.219,134.072,232.219,134.072c-0.585,1.014-204.526-117.788-211.537-105.644c0,0,213.184,119.519,211.641,122.191 c0,0-181.738-107.548-188.783-95.346c-1.928,3.341,195.752,96.027,188.395,108.77c-0.436,0.755-91.516-37.228-91.516-37.228 c-1.704,2.952,93.202,53.81,93.202,53.81c-2.31,4-84.793-35.219-85.364-34.23c0,0,81.85,46.176,81.382,46.986 c-2.295,3.976-73.746-39.193-76.044-35.213c-3.74,6.477,137.771,76.177,136.314,78.701l-120.18-61.47 c-0.382,0.661,121.573,58.53,116.523,67.275c-0.49,0.849-112.631-56.121-117.145-48.302c0,0,112.335,57.597,109.192,63.042 c-1.676,2.903-107.326-56.388-109.084-53.344l111.576,64.418"/> <path fill="none" stroke="#896FEB" stroke-width="4.8187" stroke-linecap="round" stroke-linejoin="round" d="M2267.157,559.306 c-0.653,1.132,20.47,11.818,20.47,11.818c-1.016,1.76-37.413-13.007-37.505-12.847c0,0,123.594,68.442,122.332,70.628 c-3.576,6.194-127.111-64.276-130.023-59.232c-2.133,3.695,149.786,84.357,148.867,85.949 c-1.88,3.256-148.903-66.415-148.903-66.415c-2.275,3.941,168.069,97.035,168.069,97.035 c-0.002,0.003-169.905-95.456-172.006-91.817c-6.737,11.668,171.293,97.948,170.883,98.659 c-4.458,7.722-179.057-95.158-179.057-95.158c-1.906,3.302,186.569,97.717,182.24,105.216"/> <path fill="none" stroke="#657187" stroke-width="4.8187" stroke-linecap="round" stroke-linejoin="round" d="M2053.406,304.882 c-0.68,1.178,25.178,14.537,25.178,14.537s-170.442-82.993-172.135-80.061c-1.289,2.232,220.84,109.959,213.244,123.116 c-5.339,9.247-231.134-138.148-239.621-123.447c-6.014,10.416,249.324,143.947,249.324,143.947s-274.135-150.878-278.259-143.735 c0,0,310.992,166.602,305.385,176.314c0,0-319.396-185.598-324.933-176.006c-11.999,20.783,351.029,192.483,346.619,200.121 c-7.496,12.983-363.083-197.582-363.083-197.582c-3.776,6.541,402.816,220.233,397.475,229.483 c-12.106,20.968-393.821-230.98-401.124-218.33c-7.846,13.589,428.409,206.801,410.854,237.207 c0,0-401.696-250.137-415.094-226.931c-13.743,23.803,419.654,233.824,415.989,240.171 c-15.064,26.092-405.203-224.022-405.203-224.022c-0.397,0.688,16.513,9.534,16.513,9.534"/> <path fill="none" stroke="#E50B15" stroke-width="4.8187" stroke-linecap="round" stroke-linejoin="round" d="M1860.802,303.533 c-14.965,25.92,362.19,202.314,359.247,207.411c-3.883,6.725-333.595-189.882-339.555-179.559 c-7.882,13.652,344.802,196.502,343.689,198.429c-5.61,9.717-339.122-181.832-339.122-181.832 c-11.011,19.072,344.091,175.928,334.247,192.978c-13.694,23.719-310.874-193.311-323.045-172.23 c-9.285,16.082,341.834,166.12,328.308,189.549c0,0-310.54-179.504-317.43-167.571c-9,15.588,326.389,172.204,319.359,184.382 c-3.764,6.519-235.899-117.645-235.899-117.645c-1.989,3.445,234.138,133.563,233.438,134.776c0,0-201.815-118.836-207.643-108.742 c-1.365,2.364,315.298,176.837,313.046,180.737c-0.402,0.695-310.642-169.711-310.642-169.711 c-0.385,0.667,78.502,45.174,78.437,45.286c-1.457,2.523-63.266-26.877-63.266-26.877c-0.797,1.381,21.085,10.882,20.526,11.851"/> <path fill="none" stroke="#D18FFD" stroke-width="4.8187" stroke-linecap="round" stroke-linejoin="round" d="M2131.956,553.892 c0,0,195.638,105.489,192.406,111.086c-5.402,9.357-172.281-95.909-176.648-88.344c-6.076,10.524,163.802,84.508,159.444,92.055 c-1.56,2.701-149.084-74.477-149.701-73.408c-5.745,9.951,147.34,81.342,145.727,84.135c-3.981,6.895-140.267-70.546-140.79-69.641 c-1,1.733,136.678,76.471,135.621,78.301c0,0-73.221-26.725-75.062-23.536c-1.611,2.79,72.124,36.544,69.917,40.366 c-0.959,1.661-84.271-36.95-84.271-36.95c-0.614,1.064,80.182,46.293,80.182,46.293c-0.662,1.147-87.559-49.384-90.961-43.493 c0,0,91.552,46.396,88.754,51.242c-1.513,2.621-123.313-58.023-125.391-54.425c-4.254,7.367,126.572,73.076,126.572,73.076"/> <path fill="none" stroke="#2535C5" stroke-width="4.8187" stroke-linecap="round" stroke-linejoin="round" d="M2111.569,562.904 c0,0,8.046,3.902,7.724,4.459c0,0-33.399-10.837-34.421-9.067l44.663,25.786c-0.467,0.809-100.364-51.766-102.039-48.864 l99.751,57.591"/> <path fill="none" stroke="#A37F1F" stroke-width="4.8187" stroke-linecap="round" stroke-linejoin="round" d="M1929.913,439.606 c-0.143,0.248,25.305,13.07,24.638,14.225c-0.886,1.535-65.376-35.884-68.02-31.305c-1.382,2.394,82.724,43.401,80.836,46.671 c0,0-96.809-51.326-99.658-46.392c-0.18,0.312,119.519,59.742,115.508,66.689c-0.177,0.307-133.277-57.223-133.277-57.223 c-3.396,5.882,149.122,86.096,149.122,86.096c-5.539,9.595-152.954-86.606-158.561-76.893 c-3.924,6.797,287.718,166.114,287.718,166.114c-0.914,1.583-295.02-161.868-296.277-159.691 c-1.635,2.833,315.926,161.97,307.079,177.292c-13.004,22.524-314.439-164.615-314.966-163.703 c-5.99,10.375,335.072,180.754,329.573,190.279c-12.022,20.823-341.466-185.271-342.273-183.874 c-17.081,29.585,492.824,246.958,476.554,275.138c-20.546,35.586-481.584-271.36-482.163-270.358 c0,0,486.4,253.123,474.405,273.898c-12.678,21.959-446.889-264.258-456.05-248.39c0,0,468.112,234.977,452.832,261.443 c0,0-435.345-254.893-439.879-247.04c-2.968,5.141,297.481,147.72,287.075,165.743c-6.675,11.562-264.472-143.196-267.763-137.495 c-9.511,16.474,264.772,127.89,253.957,146.622c-5.035,8.721-252.077-135.103-252.077-135.103 c-0.517,0.896,152.463,85.458,151.351,87.383c-0.505,0.876-124.49-60.804-125.691-58.724c0,0,121.406,66.12,119.686,69.1"/> <path fill="none" stroke="#77BF03" stroke-width="4.8187" stroke-linecap="round" stroke-linejoin="round" d="M1404.643,233.294 c-6.29,10.895,395.251,228.198,395.251,228.198c-9.811,16.992-299.871-154.648-299.871-154.648 c-9.365,16.221,289.846,167.343,289.846,167.343s-262.644-168.072-274.18-148.091c-2.856,4.946,277.924,149.772,273.297,157.788 c0,0-253.248-138.174-257.166-131.387c-0.482,0.836,282.167,149.062,276.171,159.448c-7.288,12.623-225.917-133.556-235.39-117.147 c-2.316,4.011,264.648,149.623,263.274,152.001c0,0-250.042-130.285-251.685-127.438c-1.806,3.129,421.892,225.692,414.146,239.107 c-0.771,1.335-402.394-227.355-407.182-219.062c-0.246,0.427,75.434,37.285,72.72,41.985c0,0-73.901-35.923-75.593-32.992 c-0.319,0.552,47.211,24.883,46.183,26.664c-1.124,1.947-40.389-16.127-40.546-15.856l19.77,11.414"/> <path fill="none" stroke="#C3BB9D" stroke-width="4.8187" stroke-linecap="round" stroke-linejoin="round" d="M1836.765,304.036 c-0.307,0.531,19.465,11.238,19.465,11.238l-46.261-14.919c0,0,48.69,26.476,47.982,27.702"/> <path fill="none" stroke="#5B172D" stroke-width="4.8187" stroke-linecap="round" stroke-linejoin="round" d="M1722.964,187.402 c-0.517,0.896,13.209,7.422,13.121,7.575c-0.956,1.655-65.465-25.821-65.824-25.198c-0.753,1.304,102.144,50.463,98.459,56.845 c-3.743,6.483-99.916-51.758-100.956-49.957c-3.133,5.427,116.888,57.316,112.484,64.943 c-2.027,3.511-121.047-59.233-121.549-58.363c-2.198,3.808,126.266,69.481,124.785,72.045 c-3.066,5.31-136.369-65.125-136.369-65.125s147.315,76.437,143.584,82.898c0,0-169.075-84.457-170.969-81.176 c-0.427,0.74,182.309,105.256,182.309,105.256c-6.886,11.927-186.734-110.105-192.833-99.543 c-8.169,14.15,261.238,135.394,254.555,146.968c-3.227,5.589-265.169-140.386-267.389-136.541 c-2.699,4.674,277.486,153.464,274.566,158.521c-1.038,1.797-286.708-164.101-289.584-159.12 c-0.814,1.41,294.657,150.26,286.058,165.155"/> <path fill="none" stroke="#C70111" stroke-width="4.8187" stroke-linecap="round" stroke-linejoin="round" d="M1403.903,94.761 c-0.788,1.364,27.243,15.064,26.955,15.563c-1.713,2.966-51.232-21.114-51.883-19.988 c-4.904,8.494,200.835,113.107,199.603,115.241c-7.413,12.839-227.004-136.104-232.389-126.778 c-19.179,33.219,530.323,279.707,518.859,299.563c-1.832,3.174-523.002-326.665-537.675-301.25 c0,0,551.201,274.417,532.227,307.281c-10.865,18.819-575.272-314.423-575.272-314.423s586.273,291.477,565.918,326.733 c-26.625,46.115-614.125-363.825-622.762-348.866c-0.844,1.461,620.294,358.127,620.294,358.127S1240.724,3.054,1213.834,49.628 c-10.95,18.965,632.808,365.352,632.808,365.352c-15.479,26.81-635.076-396.558-654.408-363.073 c-25.531,44.22,639.353,365.2,637.651,368.148c0,0-650.486-385.3-658.996-370.559c-5.317,9.209,662.578,382.539,662.578,382.539 c-4.53,7.847-657.129-412.229-678.115-375.88c0,0,670.307,373.87,664.621,383.719c-10.872,18.83-669.046-398.179-678.293-382.161 c-16.64,28.821,694.205,346.002,670.477,387.1c-21.059,36.476-675.861-393.73-685.785-376.54c0,0,701.709,338.524,672.867,388.48 c0,0-673.701-413.186-691.069-383.103c0,0,266.951,132.582,257.623,148.739c-1.811,3.137-265.581-143.017-268.686-137.639 c0,0,230.005,132.577,229.911,132.739c0,0-226.4-139.304-234.308-125.607c-6.51,11.276,221.317,127.778,221.317,127.778 c-3.708,6.422-225.886-126.211-229.979-119.122c-5.571,9.65,208.26,120.239,208.26,120.239 c-7.301,12.645-219.259-117.857-221.896-113.29c-5.002,8.664,194.936,109.965,193.819,111.901 c-0.017,0.03-191.97-123.786-200.522-108.974c-2.851,4.938,189.819,103.076,186.997,107.963 c-5.811,10.065-182.939-98.239-187.98-89.507c0,0,163.39,80.34,157.331,90.835c-0.588,1.019-139.823-79.373-144.682-70.958 c-0.497,0.861,119.302,68.484,119.131,68.78c-1.015,1.757-81.468-33.27-81.468-33.27c-1.579,2.736,55.685,32.15,55.685,32.15 l-34.818-13.014c-0.278,0.482,23.292,11.391,22.401,12.933"/> <path fill="none" stroke="#07612F" stroke-width="4.8187" stroke-linecap="round" stroke-linejoin="round" d="M1514.89,135.324 c0,0,77.814,40.614,75.947,43.848c0,0-75.909-40.338-77.485-37.608c-3.075,5.326,74.912,37.874,72.584,41.906 c-2.672,4.628-105.384-49.554-109.072-43.165c0,0,96.216,54.435,95.733,55.271"/> <path fill="none" stroke="#BDE35B" stroke-width="4.8187" stroke-linecap="round" stroke-linejoin="round" d="M1576.956,86.654 c0,0,102.484,52.192,99.463,57.425c-2.021,3.5-118.056-58.115-121.347-52.416c-0.046,0.08,106.194,61.311,106.194,61.311 c-2.538,4.397-132.617-57.696-132.617-57.696l119.011,68.711c-4.455,7.717-138.43-67.647-140.587-63.911 c-1.403,2.429,129.453,67.46,126.301,72.92c-1.519,2.631-147.846-75.512-149.021-73.476 c-5.257,9.105,128.208,74.021,128.208,74.021c-4.559,7.896-135.166-73.483-137.674-69.139c0,0,125.333,65.456,122.343,70.635 c-3.553,6.153-119.186-57.493-119.811-56.41c0,0,12.947,6.31,12.442,7.184"/> <path fill="none" stroke="#73C9B3" stroke-width="4.8187" stroke-linecap="round" stroke-linejoin="round" d="M1720.117,150.704 c-0.792,1.372,122.039,58.885,117.027,67.566c-2.203,3.815-61.856-25.832-63.989-22.139c-0.684,1.185,44.05,23.232,43.098,24.882"/> <path fill="none" stroke="#B9ED33" stroke-width="4.8187" stroke-linecap="round" stroke-linejoin="round" d="M2038.066,268.14 c-1.682,2.913,112.44,64.917,112.44,64.917"/> <path fill="none" stroke="#97FB5B" stroke-width="4.8187" stroke-linecap="round" stroke-linejoin="round" d="M1796.18,79.069 c-0.583,1.01,24.574,14.02,24.501,14.146c-0.995,1.723-54.13-22.124-54.13-22.124s82.601,44.516,81.227,46.897 c-0.392,0.678-181.94-101.46-187.341-92.106c-15.383,26.645,640.782,369.956,640.782,369.956S1657.188-9.151,1638.784,22.725 c-3.555,6.158,707.092,347.895,680.962,393.154c0,0-683.253-419.429-699.045-392.077 c-14.154,24.516,553.008,284.06,537.757,310.474c-11.787,20.416-558.56-340.027-573.308-314.484l355.837,205.442 c-9.306,16.119-359.576-225.885-372.879-202.844c-0.65,1.125,339.116,195.789,339.116,195.789 c-8.348,14.46-353.055-208.229-360.447-195.426c-4.949,8.573,344.081,182.608,337.132,194.643 C1869.787,241.861,1541.169,6.126,1531.5,22.873c-11.653,20.184,356.988,174.455,343.282,198.194 c0,0-364.653-201.979-365.215-201.004l347.43,200.589c-8.196,14.196-364.222-200.545-365.466-198.391 c-2.776,4.808,199.527,105.933,195.516,112.881c0,0-205.61-111.072-206.165-110.11c0,0,201.348,109.338,198.356,114.521 c-9.514,16.479-223.587-120.839-226.954-115.007c-3.88,6.721,108.851,55.406,105.63,60.985c0,0-125.427-64.408-127.167-61.394 l104.193,60.156c-3.241,5.614-111.407-63.329-115.378-56.452c-0.047,0.082,93.029,50.851,91.791,52.996 c0,0-109.841-54.875-110.407-53.894c-3.675,6.366,98.314,49.327,95.094,54.903c-2.167,3.753-115.282-53.992-115.282-53.992 c-3.737,6.473,92.129,48.304,90.013,51.969c-2.197,3.806-106.029-56.88-108.921-51.872c0,0,91.668,48.184,89.615,51.739 c0,0-92.232-47.241-93.134-45.679c-2.149,3.722,83.24,44.716,81.793,47.223c0,0-82.008-41.383-84.884-36.401 c-1.719,2.978,59.4,33.48,59.047,34.091c-1.566,2.712-47.517-20.862-48.381-19.365c-0.12,0.209,29.406,16.737,29.302,16.918"/> <path fill="none" stroke="#216305" stroke-width="4.8187" stroke-linecap="round" stroke-linejoin="round" d="M2025.327,117.828 c-0.912,1.58,29.147,16.009,28.792,16.623c-4.26,7.378-115.025-47.135-115.185-46.858 c-3.219,5.576,339.214,164.066,325.453,187.901c0,0-361.369-230.086-377.203-202.661 c-12.537,21.716,402.541,203.483,390.016,225.176c-14.095,24.413-401.746-225.239-401.746-225.239 c-16.537,28.643,401.177,227.311,399.311,230.542c0,0-403.072-243.094-414.331-223.594 c-8.863,15.351,437.206,215.27,421.119,243.133c-6.984,12.097-418.781-260.163-430.926-239.126c0,0,454.742,222.33,437.328,252.491 c-17.625,30.528-417.431-230.684-417.431-230.684s425.212,235.969,421.086,243.114c-13.777,23.862-381.324-248.862-397.907-220.14 c0,0,402.395,220.871,397.436,229.46c-9.84,17.043-355.948-211.505-366.959-192.434 c-14.802,25.637,372.552,212.136,371.271,214.354"/> <path fill="none" stroke="#C5EF35" stroke-width="4.8187" stroke-linecap="round" stroke-linejoin="round" d="M2175.361,191.851 c-0.871,1.509,22.453,11.871,21.98,12.69c-0.173,0.3-105.63-46.749-106.542-45.17c-3.946,6.835,153.447,85.439,152.081,87.804"/> </g> </svg>